<svg width="32" height="26" viewBox="0 0 32 26" fill="none" xmlns="http://www.w3.org/2000/svg">
<path d="M28.123 5.96074H3.03226C1.40045 5.96074 0.0776367 4.62677 0.0776367 2.97971C0.0776367 1.33562 1.40045 0.000161171 3.03226 0.000161171H28.123C29.7548 0.000161171 31.0776 1.33562 31.0776 2.97971C31.0776 4.62677 29.7548 5.96074 28.123 5.96074Z" fill="#C0171D"/>
<path d="M28.123 15.9809H3.03226C1.40045 15.9809 0.0776367 14.6469 0.0776367 12.9999C0.0776367 11.3558 1.40045 10.0203 3.03226 10.0203H28.123C29.7548 10.0203 31.0776 11.3558 31.0776 12.9999C31.0776 14.6469 29.7548 15.9809 28.123 15.9809Z" fill="#C0171D"/>
<path d="M28.123 26H3.03226C1.40045 26 0.0776367 24.6675 0.0776367 23.0205C0.0776367 21.3749 1.40045 20.0409 3.03226 20.0409H28.123C29.7548 20.0409 31.0776 21.3749 31.0776 23.0205C31.0776 24.6675 29.7548 26 28.123 26Z" fill="#C0171D"/>
</svg>
