<svg width="15" height="21" viewBox="0 0 15 21" fill="none" xmlns="http://www.w3.org/2000/svg">
<path d="M6.63179 9.83726L1.61643 6.49368L3.00788 5.89735L7.83833 9.0329L6.63179 9.83726Z" fill="white" stroke="white" stroke-width="0.5"/>
<path d="M6.57739 10.9109L1.16193 14.4621C1.09402 14.5066 1.1047 14.6092 1.18033 14.6388L3.07389 15.3798C3.10458 15.3918 3.13921 15.3879 3.16648 15.3694L8.16333 11.9787C8.22349 11.9379 8.22136 11.8485 8.15932 11.8106L6.68437 10.9092C6.65138 10.8891 6.60972 10.8897 6.57739 10.9109Z" fill="white" stroke="white" stroke-width="0.5"/>
<path d="M13.8775 1.05757L3.7631 5.26445C3.68843 5.2955 3.67959 5.39773 3.74781 5.44114L5.57266 6.60241C5.60017 6.61992 5.63449 6.62291 5.66462 6.61043L11.9393 4.01091C12.0052 3.98363 12.0776 4.03202 12.0776 4.10329V6.44349C12.0776 6.52336 12.1666 6.571 12.2331 6.5267L13.9714 5.36782C13.9992 5.34927 14.0159 5.31805 14.0159 5.28461V1.1499C14.0159 1.07857 13.9434 1.03017 13.8775 1.05757Z" fill="white" stroke="white" stroke-width="0.5"/>
<path d="M5.47685 14.415L3.82432 15.5718C3.75982 15.6169 3.77037 15.7154 3.84297 15.7459L13.8748 19.9557C13.9407 19.9833 14.0135 19.9349 14.0135 19.8635V15.7306C14.0135 15.6965 13.996 15.6646 13.9671 15.6463L12.1365 14.4813C12.07 14.439 11.9828 14.4868 11.9828 14.5657V16.9106C11.9828 16.9819 11.9104 17.0303 11.8446 17.003L5.57247 14.4045C5.54091 14.3915 5.50485 14.3954 5.47685 14.415Z" fill="white" stroke="white" stroke-width="0.5"/>
<path d="M13.86 8.94451L11.5605 10.4228C11.4993 10.4621 11.4993 10.5516 11.5605 10.591L13.86 12.0692C13.9266 12.112 14.0141 12.0642 14.0141 11.9851V9.02863C14.0141 8.94951 13.9266 8.90172 13.86 8.94451Z" fill="white" stroke="white" stroke-width="0.5"/>
</svg>
