<svg width="55" height="55" viewBox="0 0 55 55" fill="none" xmlns="http://www.w3.org/2000/svg">
<g clip-path="url(#clip0_1302_36417)">
<path d="M38.9684 28.6458V46.0968C38.9684 47.5475 38.4665 49.312 37.6553 50.6985C37.1305 51.5945 36.8142 52.6877 36.7111 53.9481C36.6607 54.5806 36.0969 55.0504 35.4759 54.9977C34.8457 54.9473 34.3759 54.3927 34.4263 53.7625C34.5569 52.1583 34.9763 50.7375 35.6753 49.5435C36.365 48.361 36.6744 46.9608 36.6744 46.0991V28.6481C36.6744 28.0156 36.1611 27.5023 35.5286 27.5023C34.8961 27.5023 34.3828 28.0156 34.3828 28.6481V35.5231C34.3828 36.1556 33.8694 36.6689 33.2369 36.6689C32.6044 36.6689 32.0911 36.1556 32.0911 35.5231V26.3564C32.0911 25.7239 31.5778 25.2106 30.9453 25.2106C30.3128 25.2106 29.7994 25.7239 29.7994 26.3564V35.5231C29.7994 36.1556 29.2861 36.6689 28.6536 36.6689C28.0211 36.6689 27.5078 36.1556 27.5078 35.5231V24.0648C27.5078 23.4323 26.9944 22.9189 26.3619 22.9189C25.7294 22.9189 25.2161 23.4323 25.2161 24.0648V35.5231C25.2161 36.1556 24.7028 36.6689 24.0703 36.6689C23.4378 36.6689 22.9244 36.1556 22.9244 35.5231V26.3564C22.9244 25.7239 22.4111 25.2106 21.7786 25.2106C21.1461 25.2106 20.6328 25.7239 20.6328 26.3564V43.5187C20.6648 44.5087 19.354 45.0564 18.6757 44.33L16.0357 41.69C15.5567 41.2041 14.7019 41.0483 14.1542 41.69C13.6661 42.1506 13.6134 43.0466 14.0946 43.5141L20.4975 49.7475C21.5769 50.797 22.3355 52.1262 22.693 53.5883C22.8419 54.2048 22.4661 54.8235 21.8519 54.9748C21.2538 55.1237 20.6144 54.7548 20.4655 54.1337C20.2111 53.0887 19.668 52.14 18.898 51.3906L12.4836 45.1458C11.104 43.812 11.1498 41.3898 12.5317 40.0698C13.7165 38.4037 16.9615 38.995 17.6536 40.072L18.3365 40.755V26.3587C18.3365 24.4635 19.8788 22.9212 21.774 22.9212C22.2255 22.9212 22.6563 23.0129 23.0528 23.1733C23.4492 21.7112 24.7738 20.6295 26.3573 20.6295C27.9409 20.6295 29.2655 21.7135 29.6619 23.1733C30.0584 23.0129 30.4869 22.9212 30.9407 22.9212C32.5242 22.9212 33.8488 24.0052 34.2453 25.465C34.6417 25.3046 35.0703 25.2129 35.524 25.2129C37.4192 25.2129 38.9615 26.7552 38.9615 28.6504L38.9684 28.6458ZM12.7242 30.4471C13.6959 30.4814 14.2596 29.1912 13.5469 28.5037L6.06234 20.767C5.46421 20.1483 4.71255 18.9291 4.38713 17.5977C4.02963 16.202 3.22984 14.5406 1.90755 13.2848C0.814422 12.2787 -0.743912 14.0227 0.383588 14.9943C1.32546 15.8835 1.88463 17.1073 2.15963 18.1431C2.54234 19.7037 3.4063 21.3216 4.41463 22.3621L11.8992 30.0964C12.1238 30.3302 12.424 30.4448 12.7219 30.4448L12.7242 30.4471ZM10.3684 5.7108C11.6448 6.50372 13.1092 6.9208 14.6103 6.9208H14.624L23.9855 6.90247C24.6523 6.90934 25.2275 7.53955 25.2184 8.24997C25.2803 9.09559 24.5378 9.56538 23.8709 9.56309L19.7092 9.51955C18.7353 9.56767 18.1463 10.7433 18.8773 11.4675L24.524 17.247C25.5484 18.3241 27.2167 16.6925 26.1625 15.6452L22.4455 11.841L23.8411 11.8548C25.1015 12.1412 27.8194 10.2941 27.5078 8.27747C27.5307 6.31351 25.9288 4.63601 23.9946 4.6108L14.6148 4.62913C13.5423 4.70017 12.5707 4.35413 11.6838 3.82934L8.19359 0.33455C7.15775 -0.733366 5.50775 0.918925 6.57338 1.95476C6.57338 1.95476 10.295 5.66267 10.3684 5.7108ZM46.3705 1.95247C47.4338 0.91205 45.7723 -0.731075 44.7434 0.339134L42.179 2.9333C41.205 3.73538 40.199 4.26705 39.1884 4.51226C37.63 4.89497 36.0144 5.75663 34.9763 6.76038L29.9369 11.55C28.8438 12.556 30.4548 14.2518 31.5136 13.2114L36.5621 8.41497C37.1832 7.81455 38.4046 7.06288 39.7338 6.73976C41.079 6.40976 42.3921 5.72455 43.719 4.62455L46.3682 1.95018L46.3705 1.95247ZM54.6755 11.2475C54.2286 10.8006 53.5021 10.8006 53.0553 11.2475C52.9292 11.3873 51.6825 12.5835 51.623 12.7233C50.8255 14.002 50.4084 15.4733 50.4107 16.9789L50.4267 26.3427C50.4405 27.0187 49.7232 27.5893 49.0815 27.5756C48.0388 27.5435 47.8325 26.927 47.7684 26.2281L47.8119 22.0664C47.8555 21.081 46.563 20.5241 45.8732 21.2277L42.6717 24.2962C41.5832 25.3091 43.1988 26.9935 44.2575 25.9508L45.4928 24.7683L45.4767 26.2029C45.4492 28.1783 46.9686 29.9039 49.0563 29.8696C50.9653 29.936 52.7321 28.2745 52.7207 26.3564L52.7046 16.9766C52.7046 15.9431 52.9773 14.9325 53.5044 14.0456L54.6777 12.8723C55.1246 12.4254 55.1246 11.6989 54.6777 11.252L54.6755 11.2475Z" fill="url(#paint0_linear_1302_36417)"/>
</g>
<defs>
<linearGradient id="paint0_linear_1302_36417" x1="27.5025" y1="-0.0112305" x2="27.5025" y2="55.0077" gradientUnits="userSpaceOnUse">
<stop stop-color="#8BC34A"/>
<stop offset="1" stop-color="#E6FFC8"/>
</linearGradient>
<clipPath id="clip0_1302_36417">
<rect width="55" height="55" fill="white"/>
</clipPath>
</defs>
</svg>
