<svg width="54" height="54" viewBox="0 0 54 54" fill="none" xmlns="http://www.w3.org/2000/svg">
<g clip-path="url(#clip0_1314_36561)">
<path d="M7.87529 31.5C5.32154 31.5 3.03329 33.0165 2.17829 35.2733C1.95779 35.856 1.30979 36.1418 0.727036 35.928C0.146536 35.7075 -0.145964 35.0573 0.072286 34.4767C1.25804 31.3493 4.39229 29.25 7.87529 29.25C11.3583 29.25 14.4925 31.3515 15.6783 34.4767C15.8988 35.0573 15.6063 35.7075 15.0235 35.928C14.8908 35.9753 14.758 36 14.6253 36C14.1708 36 13.7433 35.7233 13.5723 35.2733C12.7173 33.0165 10.429 31.5 7.87529 31.5ZM22.5003 4.5C22.5003 2.01825 24.5185 0 27.0003 0C29.482 0 31.5003 2.01825 31.5003 4.5C31.5003 6.98175 29.482 9 27.0003 9C24.5185 9 22.5003 6.98175 22.5003 4.5ZM24.7503 4.5C24.7503 5.742 25.7605 6.75 27.0003 6.75C28.24 6.75 29.2503 5.742 29.2503 4.5C29.2503 3.258 28.24 2.25 27.0003 2.25C25.7605 2.25 24.7503 3.258 24.7503 4.5ZM37.1253 6.75H41.6253C44.7258 6.75 47.2503 9.27225 47.2503 12.375C47.2503 12.996 47.7543 13.5 48.3753 13.5C48.9963 13.5 49.5003 12.996 49.5003 12.375C49.5003 8.0325 45.9678 4.5 41.6253 4.5H37.1253C36.5043 4.5 36.0003 5.004 36.0003 5.625C36.0003 6.246 36.5043 6.75 37.1253 6.75ZM50.6253 22.5C50.6253 24.9818 48.607 27 46.1253 27C43.6435 27 41.6253 24.9818 41.6253 22.5C41.6253 20.0182 43.6435 18 46.1253 18C48.607 18 50.6253 20.0182 50.6253 22.5ZM48.3753 22.5C48.3753 21.258 47.365 20.25 46.1253 20.25C44.8855 20.25 43.8753 21.258 43.8753 22.5C43.8753 23.742 44.8855 24.75 46.1253 24.75C47.365 24.75 48.3753 23.742 48.3753 22.5ZM27.0003 45C24.5185 45 22.5003 42.9818 22.5003 40.5C22.5003 38.0182 24.5185 36 27.0003 36C29.482 36 31.5003 38.0182 31.5003 40.5C31.5003 42.9818 29.482 45 27.0003 45ZM27.0003 42.75C28.24 42.75 29.2503 41.742 29.2503 40.5C29.2503 39.258 28.24 38.25 27.0003 38.25C25.7605 38.25 24.7503 39.258 24.7503 40.5C24.7503 41.742 25.7605 42.75 27.0003 42.75ZM27.0003 11.25C23.5195 11.25 20.383 13.3515 19.1973 16.4767C18.9768 17.0572 19.2693 17.7075 19.852 17.928C20.4325 18.144 21.0805 17.856 21.3033 17.2733C22.1583 15.0165 24.4465 13.5 27.0003 13.5C29.554 13.5 31.8423 15.0165 32.6973 17.2733C32.8683 17.7232 33.2958 18 33.7503 18C33.883 18 34.018 17.9753 34.1485 17.928C34.729 17.7075 35.0215 17.0572 34.8033 16.4767C33.6175 13.3492 30.4833 11.25 27.0003 11.25ZM7.87529 27C5.39354 27 3.37529 24.9818 3.37529 22.5C3.37529 20.0182 5.39354 18 7.87529 18C10.357 18 12.3753 20.0182 12.3753 22.5C12.3753 24.9818 10.357 27 7.87529 27ZM7.87529 24.75C9.11504 24.75 10.1253 23.742 10.1253 22.5C10.1253 21.258 9.11504 20.25 7.87529 20.25C6.63554 20.25 5.62529 21.258 5.62529 22.5C5.62529 23.742 6.63554 24.75 7.87529 24.75ZM53.9283 34.4767C52.7425 31.3493 49.6083 29.25 46.1253 29.25C42.6423 29.25 39.508 31.3515 38.3223 34.4767C38.1018 35.0573 38.3943 35.7075 38.977 35.928C39.5598 36.1418 40.2078 35.856 40.4283 35.2733C41.2833 33.0165 43.5715 31.5 46.1253 31.5C48.679 31.5 50.9673 33.0165 51.8223 35.2733C51.9933 35.7233 52.4208 36 52.8753 36C53.008 36 53.143 35.9753 53.2735 35.928C53.854 35.7075 54.1465 35.0573 53.9283 34.4767ZM48.3753 38.25C47.7543 38.25 47.2503 38.754 47.2503 39.375V41.625C47.2503 44.7277 44.7258 47.25 41.6253 47.25H37.1253C36.5043 47.25 36.0003 47.754 36.0003 48.375C36.0003 48.996 36.5043 49.5 37.1253 49.5H41.6253C45.9678 49.5 49.5003 45.9675 49.5003 41.625V39.375C49.5003 38.754 48.9963 38.25 48.3753 38.25ZM16.8753 47.25H12.3753C9.27479 47.25 6.75029 44.7277 6.75029 41.625V39.375C6.75029 38.754 6.24629 38.25 5.62529 38.25C5.00429 38.25 4.50029 38.754 4.50029 39.375V41.625C4.50029 45.9675 8.03279 49.5 12.3753 49.5H16.8753C17.4963 49.5 18.0003 48.996 18.0003 48.375C18.0003 47.754 17.4963 47.25 16.8753 47.25ZM16.8753 4.5H12.3753C8.03279 4.5 4.50029 8.0325 4.50029 12.375C4.50029 12.996 5.00429 13.5 5.62529 13.5C6.24629 13.5 6.75029 12.996 6.75029 12.375C6.75029 9.27225 9.27479 6.75 12.3753 6.75H16.8753C17.4963 6.75 18.0003 6.246 18.0003 5.625C18.0003 5.004 17.4963 4.5 16.8753 4.5ZM27.0003 47.25C23.5195 47.25 20.383 49.3515 19.1973 52.4767C18.9768 53.0573 19.2693 53.7075 19.852 53.928C20.4325 54.144 21.0805 53.856 21.3033 53.2733C22.1583 51.0165 24.4465 49.5 27.0003 49.5C29.554 49.5 31.8423 51.0165 32.6973 53.2733C32.8683 53.7233 33.2958 54 33.7503 54C33.883 54 34.018 53.9753 34.1485 53.928C34.729 53.7075 35.0215 53.0573 34.8033 52.4767C33.6175 49.3493 30.4833 47.25 27.0003 47.25Z" fill="url(#paint0_linear_1314_36561)"/>
</g>
<defs>
<linearGradient id="paint0_linear_1314_36561" x1="27.0003" y1="0" x2="27.0003" y2="54" gradientUnits="userSpaceOnUse">
<stop stop-color="#8BC34A"/>
<stop offset="1" stop-color="#E6FFC8"/>
</linearGradient>
<clipPath id="clip0_1314_36561">
<rect width="54" height="54" fill="white"/>
</clipPath>
</defs>
</svg>
