<svg width="55" height="55" viewBox="0 0 55 55" fill="none" xmlns="http://www.w3.org/2000/svg">
<path d="M53.7231 21.8532C52.7537 20.8976 51.4062 20.4667 50.0541 20.6753C45.6793 21.3353 41.6551 23.0701 38.2108 25.5978C37.7708 19.2269 35.1743 12.5628 31.0745 7.43402C29.3443 5.27069 25.6547 5.27069 23.9245 7.43402C19.8912 12.4803 17.2466 19.2819 16.7906 25.5955C13.2935 23.038 9.19828 21.2986 4.74328 20.6684C3.46453 20.4919 2.19953 20.9113 1.26453 21.8349C0.322652 22.7607 -0.121931 24.0303 0.040777 25.3159C1.85349 39.6274 13.6579 50.4188 27.4972 50.4188C41.2472 50.4188 53.0539 39.7076 54.9583 25.5015C55.1416 24.1357 54.6901 22.8065 53.7208 21.8532H53.7231ZM25.7143 8.86173C26.5691 7.79152 28.4299 7.79152 29.2847 8.86173C33.4624 14.089 35.9627 21.0167 35.9856 27.4105C32.0118 31.0061 29.0304 35.7476 27.5041 41.0849C25.9779 35.7361 22.9964 30.9924 19.0158 27.4013C19.041 21.1015 21.6031 14.0065 25.7166 8.86173H25.7143ZM2.3164 25.0249C2.24307 24.4542 2.43328 23.8699 2.87328 23.4642C3.46682 22.9165 4.33994 22.9234 4.42244 22.9349C16.5545 24.6536 25.7922 35.3626 26.3308 48.0974C14.1529 47.5084 3.93432 37.7871 2.3164 25.0249ZM52.6895 25.1967C50.9914 37.8628 40.7729 47.5107 28.6706 48.0974C29.2068 35.4588 38.3666 24.7521 50.3933 22.9417C50.501 22.9257 51.562 22.8065 52.1143 23.4871C52.5131 23.9776 52.7743 24.5528 52.6872 25.1967H52.6895Z" fill="url(#paint0_linear_1302_36431)"/>
<defs>
<linearGradient id="paint0_linear_1302_36431" x1="27.5031" y1="5.81152" x2="27.5031" y2="50.4188" gradientUnits="userSpaceOnUse">
<stop stop-color="#8BC34A"/>
<stop offset="1" stop-color="#E6FFC8"/>
</linearGradient>
</defs>
</svg>
