<svg width="295" height="115" viewBox="0 0 295 115" fill="none" xmlns="http://www.w3.org/2000/svg">
<g filter="url(#filter0_d_1610_17721)">
<path d="M13.2406 36.5657L20.3298 33.5275C20.5598 33.4289 20.8238 33.4515 21.0336 33.5877L44.4905 48.8141C44.9427 49.1077 44.9467 49.7682 44.4982 50.0672L38.3662 54.1552C38.1143 54.3232 37.7861 54.3232 37.5341 54.1552L13.12 37.8791C12.6244 37.5487 12.6931 36.8003 13.2406 36.5657Z" fill="#8BC34A" stroke="#8BC34A" stroke-width="0.5"/>
<path d="M37.4171 58.6142L12.6193 74.875C11.9402 75.3203 12.047 76.3466 12.8033 76.6425L20.6699 79.7208C20.9768 79.8408 21.3231 79.802 21.5958 79.617L44.6138 63.9977C45.2154 63.5894 45.1941 62.696 44.5738 62.3169L38.4869 58.5971C38.157 58.3955 37.7404 58.4022 37.4171 58.6142Z" fill="#8BC34A" stroke="#8BC34A" stroke-width="0.5"/>
<path d="M71.9006 11.5757L25.1388 31.0253C24.3921 31.3358 24.3037 32.3581 24.9859 32.7923L32.6467 37.6673C32.9218 37.8424 33.265 37.8723 33.5663 37.7475L62.6252 25.7088C63.2837 25.436 64.008 25.9199 64.008 26.6326V36.0781C64.008 36.8768 64.8981 37.3532 65.5627 36.9101L72.8394 32.059C73.1176 31.8735 73.2847 31.5613 73.2847 31.227V12.499C73.2847 11.7857 72.5592 11.3017 71.9006 11.5757Z" fill="#8BC34A" stroke="#8BC34A" stroke-width="0.5"/>
<path d="M32.198 75.3679L25.2979 80.1981C24.6529 80.6496 24.7584 81.6347 25.4844 81.9394L71.9013 101.418C72.5603 101.694 73.2882 101.21 73.2882 100.496V81.7868C73.2882 81.4449 73.1136 81.1267 72.8251 80.9431L65.1067 76.0314C64.4409 75.6077 63.5698 76.0859 63.5698 76.875V86.3673C63.5698 87.08 62.8455 87.564 62.187 87.2912L33.1543 75.2633C32.8386 75.1325 32.478 75.172 32.198 75.3679Z" fill="#8BC34A" stroke="#8BC34A" stroke-width="0.5"/>
<path d="M71.7461 49.5391L62.2265 55.6589C61.6141 56.0525 61.6141 56.9476 62.2265 57.3412L71.7461 63.461C72.4117 63.8888 73.2869 63.411 73.2869 62.6198V50.3802C73.2869 49.5891 72.4117 49.1112 71.7461 49.5391Z" fill="#8BC34A" stroke="#8BC34A" stroke-width="0.5"/>
</g>
<path d="M114.118 61.6814C110.744 61.6814 107.625 61.1277 104.764 60.0204C101.902 58.8705 99.4244 57.2735 97.3314 55.2292C95.2384 53.185 93.5939 50.7787 92.3979 48.0105C91.2446 45.2422 90.668 42.2184 90.668 38.9391C90.668 35.6598 91.2446 32.636 92.3979 29.8678C93.5939 27.0995 95.2384 24.6933 97.3314 22.649C99.4671 20.6048 101.966 19.029 104.828 17.9217C107.69 16.7718 110.808 16.1969 114.182 16.1969C117.428 16.1969 120.482 16.7505 123.344 17.8578C126.206 18.9225 128.619 20.5409 130.584 22.7129L127.573 25.7154C125.736 23.8415 123.707 22.5 121.486 21.6908C119.265 20.839 116.873 20.4131 114.31 20.4131C111.619 20.4131 109.12 20.8816 106.814 21.8186C104.507 22.7129 102.5 24.0119 100.791 25.7154C99.0827 27.3763 97.7372 29.3354 96.7547 31.5926C95.815 33.8072 95.3452 36.256 95.3452 38.9391C95.3452 41.6222 95.815 44.0923 96.7547 46.3495C97.7372 48.5641 99.0827 50.5232 100.791 52.2267C102.5 53.8877 104.507 55.1866 106.814 56.1236C109.12 57.0179 111.619 57.4651 114.31 57.4651C116.873 57.4651 119.265 57.0392 121.486 56.1875C123.707 55.3357 125.736 53.9729 127.573 52.099L130.584 55.1015C128.619 57.2735 126.206 58.9131 123.344 60.0204C120.482 61.1277 117.407 61.6814 114.118 61.6814Z" fill="white"/>
<path d="M139.731 61.2981V27.7596H144.28V61.2981H139.731ZM142.037 20.3492C141.097 20.3492 140.307 20.0298 139.666 19.391C139.026 18.7522 138.705 17.9856 138.705 17.0912C138.705 16.1969 139.026 15.4516 139.666 14.8553C140.307 14.2165 141.097 13.8971 142.037 13.8971C142.977 13.8971 143.767 14.1952 144.408 14.7915C145.048 15.3877 145.369 16.133 145.369 17.0273C145.369 17.9643 145.048 18.7522 144.408 19.391C143.81 20.0298 143.019 20.3492 142.037 20.3492Z" fill="white"/>
<path d="M171.289 74.0107C168.214 74.0107 165.266 73.5636 162.447 72.6692C159.628 71.7748 157.343 70.4972 155.592 68.8362L157.898 65.3866C159.479 66.792 161.422 67.8993 163.729 68.7085C166.078 69.5602 168.555 69.9861 171.161 69.9861C175.432 69.9861 178.572 68.9853 180.579 66.9836C182.587 65.0246 183.591 61.9582 183.591 57.7845V49.4159L184.231 43.6664L183.783 37.917V27.7596H188.14V57.2096C188.14 63.0016 186.709 67.2392 183.847 69.9222C181.028 72.6479 176.842 74.0107 171.289 74.0107ZM170.456 60.0204C167.253 60.0204 164.369 59.339 161.807 57.9762C159.244 56.5708 157.215 54.633 155.72 52.1628C154.267 49.6927 153.541 46.8606 153.541 43.6664C153.541 40.4723 154.267 37.6615 155.72 35.2339C157.215 32.7638 159.244 30.8473 161.807 29.4845C164.369 28.1216 167.253 27.4402 170.456 27.4402C173.446 27.4402 176.137 28.0578 178.529 29.2928C180.921 30.5279 182.822 32.3592 184.231 34.7867C185.641 37.2143 186.346 40.1742 186.346 43.6664C186.346 47.1587 185.641 50.1186 184.231 52.5461C182.822 54.9737 180.921 56.8263 178.529 58.1039C176.137 59.3816 173.446 60.0204 170.456 60.0204ZM170.905 55.9958C173.382 55.9958 175.582 55.4847 177.504 54.4626C179.426 53.3979 180.942 51.9499 182.053 50.1186C183.164 48.2447 183.719 46.094 183.719 43.6664C183.719 41.2389 183.164 39.1095 182.053 37.2782C180.942 35.4469 179.426 34.0202 177.504 32.998C175.582 31.9333 173.382 31.401 170.905 31.401C168.47 31.401 166.27 31.9333 164.305 32.998C162.383 34.0202 160.867 35.4469 159.756 37.2782C158.688 39.1095 158.154 41.2389 158.154 43.6664C158.154 46.094 158.688 48.2447 159.756 50.1186C160.867 51.9499 162.383 53.3979 164.305 54.4626C166.27 55.4847 168.47 55.9958 170.905 55.9958Z" fill="white"/>
<path d="M242.829 27.4402C245.563 27.4402 247.933 27.9726 249.941 29.0373C251.991 30.0594 253.572 31.6352 254.682 33.7646C255.836 35.894 256.412 38.5771 256.412 41.8138V61.2981H251.863V42.261C251.863 38.7262 251.009 36.0644 249.3 34.2757C247.634 32.4444 245.264 31.5287 242.188 31.5287C239.882 31.5287 237.874 32.0185 236.166 32.998C234.5 33.935 233.197 35.3191 232.257 37.1504C231.36 38.9391 230.912 41.1111 230.912 43.6664V61.2981H226.363V42.261C226.363 38.7262 225.509 36.0644 223.8 34.2757C222.091 32.4444 219.699 31.5287 216.624 31.5287C214.36 31.5287 212.374 32.0185 210.665 32.998C208.957 33.935 207.633 35.3191 206.693 37.1504C205.796 38.9391 205.347 41.1111 205.347 43.6664V61.2981H200.798V27.7596H205.155V36.831L204.45 35.2339C205.476 32.8064 207.12 30.9112 209.384 29.5484C211.69 28.1429 214.403 27.4402 217.521 27.4402C220.81 27.4402 223.608 28.2707 225.914 29.9317C228.221 31.55 229.716 33.9989 230.399 37.2782L228.605 36.5755C229.588 33.8498 231.318 31.6565 233.795 29.9955C236.315 28.292 239.327 27.4402 242.829 27.4402Z" fill="white"/>
<path d="M289.828 61.2981V53.8877L289.636 52.6739V40.2807C289.636 37.4272 288.825 35.2339 287.201 33.7007C285.621 32.1676 283.25 31.401 280.09 31.401C277.911 31.401 275.839 31.763 273.875 32.487C271.91 33.211 270.244 34.1692 268.877 35.3617L266.827 31.9759C268.535 30.5279 270.586 29.4206 272.978 28.654C275.37 27.8448 277.89 27.4402 280.538 27.4402C284.895 27.4402 288.248 28.5262 290.597 30.6982C292.989 32.8277 294.185 36.0857 294.185 40.4723V61.2981H289.828ZM278.231 61.6175C275.711 61.6175 273.512 61.2129 271.632 60.4037C269.795 59.5519 268.386 58.4021 267.403 56.954C266.421 55.4634 265.93 53.7599 265.93 51.8434C265.93 50.0973 266.336 48.5215 267.147 47.1161C268.001 45.6681 269.368 44.5182 271.248 43.6664C273.17 42.7721 275.733 42.3249 278.936 42.3249H290.533V45.7107H279.064C275.818 45.7107 273.554 46.2856 272.273 47.4355C271.034 48.5854 270.415 50.0121 270.415 51.7157C270.415 53.6321 271.162 55.1653 272.657 56.3152C274.152 57.4651 276.245 58.0401 278.936 58.0401C281.499 58.0401 283.699 57.4651 285.536 56.3152C287.415 55.1227 288.782 53.4192 289.636 51.2046L290.661 54.3349C289.807 56.5495 288.312 58.3169 286.176 59.6371C284.083 60.9574 281.435 61.6175 278.231 61.6175Z" fill="white"/>
<path d="M96.6012 94.9368C95.746 94.9368 94.9549 94.7982 94.2279 94.521C93.5116 94.2331 92.8863 93.8333 92.3517 93.3215C91.8279 92.799 91.4163 92.1913 91.117 91.4983C90.8176 90.8052 90.668 90.0429 90.668 89.2112C90.668 88.3796 90.8176 87.6173 91.117 86.9242C91.4163 86.2312 91.8332 85.6288 92.3678 85.117C92.9023 84.5945 93.5277 84.1947 94.2439 83.9175C94.9709 83.6296 95.762 83.4857 96.6172 83.4857C97.4832 83.4857 98.2796 83.635 99.0066 83.9335C99.7442 84.2214 100.37 84.6532 100.883 85.2289L99.8404 86.2365C99.4128 85.7887 98.9317 85.4582 98.3972 85.2449C97.8627 85.021 97.2907 84.9091 96.6814 84.9091C96.0506 84.9091 95.4627 85.0157 94.9174 85.2289C94.3829 85.4422 93.9179 85.7407 93.5223 86.1246C93.1268 86.5084 92.8168 86.9669 92.5923 87.5C92.3785 88.0224 92.2715 88.5928 92.2715 89.2112C92.2715 89.8296 92.3785 90.4054 92.5923 90.9385C92.8168 91.4609 93.1268 91.9141 93.5223 92.2979C93.9179 92.6817 94.3829 92.9803 94.9174 93.1935C95.4627 93.4068 96.0506 93.5134 96.6814 93.5134C97.2907 93.5134 97.8627 93.4068 98.3972 93.1935C98.9317 92.9696 99.4128 92.6284 99.8404 92.17L100.883 93.1775C100.37 93.7533 99.7442 94.1904 99.0066 94.489C98.2796 94.7875 97.4778 94.9368 96.6012 94.9368Z" fill="white"/>
<path d="M106.386 94.9048C105.531 94.9048 104.772 94.7182 104.109 94.345C103.446 93.9719 102.922 93.4601 102.538 92.8097C102.153 92.1486 101.96 91.4023 101.96 90.5706C101.96 89.7283 102.153 88.982 102.538 88.3316C102.922 87.6812 103.446 87.1748 104.109 86.8123C104.772 86.4391 105.531 86.2525 106.386 86.2525C107.231 86.2525 107.984 86.4391 108.647 86.8123C109.321 87.1748 109.845 87.6812 110.219 88.3316C110.604 88.9713 110.796 89.7177 110.796 90.5706C110.796 91.413 110.604 92.1593 110.219 92.8097C109.845 93.4601 109.321 93.9719 108.647 94.345C107.984 94.7182 107.231 94.9048 106.386 94.9048ZM106.386 93.5614C106.931 93.5614 107.418 93.4388 107.845 93.1935C108.284 92.9483 108.626 92.6018 108.872 92.154C109.118 91.6955 109.241 91.1677 109.241 90.5706C109.241 89.9629 109.118 89.4405 108.872 89.0033C108.626 88.5555 108.284 88.209 107.845 87.9638C107.418 87.7185 106.931 87.5959 106.386 87.5959C105.841 87.5959 105.355 87.7185 104.927 87.9638C104.499 88.209 104.157 88.5555 103.901 89.0033C103.644 89.4405 103.516 89.9629 103.516 90.5706C103.516 91.1677 103.644 91.6955 103.901 92.154C104.157 92.6018 104.499 92.9483 104.927 93.1935C105.355 93.4388 105.841 93.5614 106.386 93.5614Z" fill="white"/>
<path d="M117.623 86.2525C118.318 86.2525 118.928 86.3858 119.452 86.6523C119.986 86.9189 120.403 87.324 120.702 87.8678C121.002 88.4116 121.151 89.0993 121.151 89.9309V94.8088H119.612V90.1068C119.612 89.2859 119.409 88.6675 119.003 88.2516C118.607 87.8358 118.046 87.6279 117.319 87.6279C116.774 87.6279 116.298 87.7345 115.892 87.9478C115.485 88.161 115.17 88.4755 114.945 88.8914C114.732 89.3072 114.625 89.8243 114.625 90.4427V94.8088H113.085V86.3325H114.561V88.6195L114.32 88.0117C114.598 87.4573 115.026 87.0255 115.603 86.7163C116.18 86.4071 116.854 86.2525 117.623 86.2525Z" fill="white"/>
<path d="M128.699 86.2525C129.394 86.2525 130.003 86.3858 130.527 86.6523C131.061 86.9189 131.478 87.324 131.778 87.8678C132.077 88.4116 132.227 89.0993 132.227 89.9309V94.8088H130.687V90.1068C130.687 89.2859 130.484 88.6675 130.078 88.2516C129.682 87.8358 129.121 87.6279 128.394 87.6279C127.849 87.6279 127.373 87.7345 126.967 87.9478C126.561 88.161 126.245 88.4755 126.021 88.8914C125.807 89.3072 125.7 89.8243 125.7 90.4427V94.8088H124.161V86.3325H125.636V88.6195L125.395 88.0117C125.673 87.4573 126.101 87.0255 126.678 86.7163C127.256 86.4071 127.929 86.2525 128.699 86.2525Z" fill="white"/>
<path d="M139.02 94.9048C138.112 94.9048 137.31 94.7182 136.615 94.345C135.931 93.9719 135.396 93.4601 135.012 92.8097C134.637 92.1593 134.45 91.413 134.45 90.5706C134.45 89.7283 134.632 88.982 134.995 88.3316C135.37 87.6812 135.877 87.1748 136.519 86.8123C137.171 86.4391 137.903 86.2525 138.716 86.2525C139.539 86.2525 140.266 86.4338 140.897 86.7963C141.527 87.1588 142.019 87.6706 142.372 88.3316C142.735 88.982 142.917 89.7443 142.917 90.6186C142.917 90.6826 142.912 90.7572 142.901 90.8425C142.901 90.9278 142.896 91.0078 142.885 91.0824H135.653V89.9789H142.083L141.458 90.3627C141.469 89.819 141.356 89.3338 141.121 88.9074C140.886 88.4809 140.56 88.1504 140.143 87.9158C139.737 87.6706 139.261 87.5479 138.716 87.5479C138.181 87.5479 137.706 87.6706 137.289 87.9158C136.872 88.1504 136.546 88.4862 136.31 88.9234C136.075 89.3498 135.958 89.8403 135.958 90.3947V90.6506C135.958 91.2157 136.086 91.7222 136.342 92.17C136.61 92.6071 136.979 92.9483 137.449 93.1935C137.919 93.4388 138.459 93.5614 139.069 93.5614C139.571 93.5614 140.025 93.4761 140.432 93.3055C140.849 93.1349 141.212 92.879 141.522 92.5378L142.372 93.5294C141.987 93.9772 141.506 94.3184 140.929 94.5529C140.362 94.7875 139.726 94.9048 139.02 94.9048Z" fill="white"/>
<path d="M148.919 94.9048C148.053 94.9048 147.278 94.7182 146.594 94.345C145.921 93.9719 145.392 93.4601 145.007 92.8097C144.622 92.1593 144.429 91.413 144.429 90.5706C144.429 89.7283 144.622 88.982 145.007 88.3316C145.392 87.6812 145.921 87.1748 146.594 86.8123C147.278 86.4391 148.053 86.2525 148.919 86.2525C149.689 86.2525 150.373 86.4071 150.972 86.7163C151.581 87.0148 152.052 87.4627 152.383 88.0597L151.213 88.8114C150.935 88.3956 150.592 88.0917 150.186 87.8998C149.791 87.6972 149.363 87.5959 148.903 87.5959C148.347 87.5959 147.85 87.7185 147.412 87.9638C146.974 88.209 146.626 88.5555 146.37 89.0033C146.113 89.4405 145.985 89.9629 145.985 90.5706C145.985 91.1784 146.113 91.7062 146.37 92.154C146.626 92.6018 146.974 92.9483 147.412 93.1935C147.85 93.4388 148.347 93.5614 148.903 93.5614C149.363 93.5614 149.791 93.4654 150.186 93.2735C150.592 93.0709 150.935 92.7617 151.213 92.3459L152.383 93.0816C152.052 93.668 151.581 94.1211 150.972 94.441C150.373 94.7502 149.689 94.9048 148.919 94.9048Z" fill="white"/>
<path d="M157.565 94.9048C156.709 94.9048 156.047 94.6756 155.576 94.2171C155.106 93.7586 154.871 93.1029 154.871 92.2499V84.4773H156.41V92.186C156.41 92.6444 156.522 92.9963 156.747 93.2415C156.982 93.4867 157.313 93.6093 157.741 93.6093C158.222 93.6093 158.623 93.4761 158.944 93.2095L159.425 94.313C159.19 94.5156 158.906 94.6649 158.575 94.7609C158.254 94.8568 157.917 94.9048 157.565 94.9048ZM153.427 87.5959V86.3325H158.848V87.5959H153.427Z" fill="white"/>
<path d="M160.994 97.1758L161.795 93.9452L162.004 94.8728C161.694 94.8728 161.432 94.7768 161.218 94.5849C161.015 94.393 160.913 94.1318 160.913 93.8013C160.913 93.4814 161.015 93.2202 161.218 93.0176C161.432 92.815 161.688 92.7137 161.988 92.7137C162.298 92.7137 162.549 92.8204 162.741 93.0336C162.934 93.2362 163.03 93.4921 163.03 93.8013C163.03 93.9079 163.019 94.0145 162.998 94.1211C162.987 94.2171 162.961 94.3344 162.918 94.473C162.886 94.6009 162.832 94.7609 162.758 94.9528L162.004 97.1758H160.994Z" fill="white"/>
<path d="M173.359 94.9368C172.504 94.9368 171.686 94.8088 170.906 94.5529C170.125 94.2864 169.51 93.9452 169.061 93.5294L169.655 92.2819C170.082 92.6551 170.628 92.9643 171.29 93.2095C171.953 93.4547 172.643 93.5774 173.359 93.5774C174.011 93.5774 174.54 93.5027 174.947 93.3535C175.353 93.2042 175.652 93.0016 175.845 92.7457C176.037 92.4792 176.133 92.1806 176.133 91.8501C176.133 91.4663 176.005 91.1571 175.748 90.9225C175.502 90.6879 175.176 90.5013 174.77 90.3627C174.375 90.2135 173.936 90.0855 173.455 89.9789C172.974 89.8723 172.488 89.7497 171.996 89.6111C171.515 89.4618 171.071 89.2752 170.665 89.0513C170.269 88.8274 169.949 88.5289 169.703 88.1557C169.457 87.7719 169.334 87.2814 169.334 86.6843C169.334 86.1086 169.484 85.5808 169.783 85.101C170.093 84.6105 170.563 84.2214 171.194 83.9335C171.836 83.635 172.648 83.4857 173.632 83.4857C174.284 83.4857 174.931 83.571 175.572 83.7416C176.213 83.9122 176.769 84.1574 177.24 84.4773L176.711 85.7567C176.229 85.4369 175.722 85.2076 175.187 85.069C174.653 84.9197 174.134 84.8451 173.632 84.8451C173.001 84.8451 172.482 84.9251 172.076 85.085C171.67 85.2449 171.371 85.4582 171.178 85.7247C170.996 85.9913 170.906 86.2898 170.906 86.6203C170.906 87.0148 171.029 87.3294 171.274 87.5639C171.531 87.7985 171.857 87.9851 172.253 88.1237C172.659 88.2623 173.102 88.3903 173.584 88.5075C174.065 88.6142 174.546 88.7368 175.027 88.8754C175.519 89.014 175.962 89.1952 176.358 89.4191C176.764 89.643 177.09 89.9416 177.336 90.3148C177.582 90.6879 177.705 91.1677 177.705 91.7541C177.705 92.3192 177.55 92.847 177.24 93.3375C176.93 93.8173 176.449 94.2064 175.796 94.505C175.155 94.7928 174.343 94.9368 173.359 94.9368Z" fill="white"/>
<path d="M183.559 94.9048C182.832 94.9048 182.191 94.7715 181.635 94.505C181.09 94.2384 180.662 93.8332 180.352 93.2895C180.053 92.7351 179.903 92.042 179.903 91.2104V86.3325H181.443V91.0345C181.443 91.8661 181.64 92.4898 182.036 92.9056C182.442 93.3215 183.009 93.5294 183.736 93.5294C184.27 93.5294 184.735 93.4228 185.131 93.2095C185.526 92.9856 185.831 92.6658 186.045 92.2499C186.259 91.8234 186.366 91.3117 186.366 90.7146V86.3325H187.905V94.8088H186.446V92.5218L186.686 93.1296C186.408 93.6946 185.991 94.1318 185.435 94.441C184.88 94.7502 184.254 94.9048 183.559 94.9048Z" fill="white"/>
<path d="M195.502 94.9048C194.796 94.9048 194.15 94.7449 193.562 94.425C192.984 94.0945 192.519 93.6093 192.167 92.9696C191.825 92.3299 191.653 91.5302 191.653 90.5706C191.653 89.6111 191.819 88.8114 192.151 88.1717C192.493 87.532 192.952 87.0522 193.53 86.7323C194.118 86.4124 194.775 86.2525 195.502 86.2525C196.336 86.2525 197.074 86.4338 197.715 86.7963C198.356 87.1588 198.864 87.6652 199.238 88.3156C199.613 88.9553 199.8 89.707 199.8 90.5706C199.8 91.4343 199.613 92.1913 199.238 92.8417C198.864 93.4921 198.356 93.9985 197.715 94.361C197.074 94.7235 196.336 94.9048 195.502 94.9048ZM190.996 97.9115V86.3325H192.471V88.6195L192.375 90.5866L192.535 92.5538V97.9115H190.996ZM195.374 93.5614C195.919 93.5614 196.405 93.4388 196.833 93.1935C197.271 92.9483 197.613 92.6018 197.859 92.154C198.116 91.6955 198.244 91.1677 198.244 90.5706C198.244 89.9629 198.116 89.4405 197.859 89.0033C197.613 88.5555 197.271 88.209 196.833 87.9638C196.405 87.7185 195.919 87.5959 195.374 87.5959C194.839 87.5959 194.353 87.7185 193.915 87.9638C193.487 88.209 193.145 88.5555 192.888 89.0033C192.642 89.4405 192.519 89.9629 192.519 90.5706C192.519 91.1677 192.642 91.6955 192.888 92.154C193.145 92.6018 193.487 92.9483 193.915 93.1935C194.353 93.4388 194.839 93.5614 195.374 93.5614Z" fill="white"/>
<path d="M206.593 94.9048C205.887 94.9048 205.241 94.7449 204.653 94.425C204.075 94.0945 203.61 93.6093 203.258 92.9696C202.916 92.3299 202.744 91.5302 202.744 90.5706C202.744 89.6111 202.91 88.8114 203.242 88.1717C203.584 87.532 204.043 87.0522 204.621 86.7323C205.209 86.4124 205.866 86.2525 206.593 86.2525C207.427 86.2525 208.165 86.4338 208.806 86.7963C209.447 87.1588 209.955 87.6652 210.329 88.3156C210.704 88.9553 210.891 89.707 210.891 90.5706C210.891 91.4343 210.704 92.1913 210.329 92.8417C209.955 93.4921 209.447 93.9985 208.806 94.361C208.165 94.7235 207.427 94.9048 206.593 94.9048ZM202.087 97.9115V86.3325H203.562V88.6195L203.466 90.5866L203.626 92.5538V97.9115H202.087ZM206.465 93.5614C207.01 93.5614 207.496 93.4388 207.924 93.1935C208.362 92.9483 208.704 92.6018 208.95 92.154C209.207 91.6955 209.335 91.1677 209.335 90.5706C209.335 89.9629 209.207 89.4405 208.95 89.0033C208.704 88.5555 208.362 88.209 207.924 87.9638C207.496 87.7185 207.01 87.5959 206.465 87.5959C205.93 87.5959 205.444 87.7185 205.006 87.9638C204.578 88.209 204.236 88.5555 203.979 89.0033C203.733 89.4405 203.61 89.9629 203.61 90.5706C203.61 91.1677 203.733 91.6955 203.979 92.154C204.236 92.6018 204.578 92.9483 205.006 93.1935C205.444 93.4388 205.93 93.5614 206.465 93.5614Z" fill="white"/>
<path d="M216.818 94.9048C215.963 94.9048 215.204 94.7182 214.541 94.345C213.878 93.9719 213.354 93.4601 212.97 92.8097C212.585 92.1486 212.392 91.4023 212.392 90.5706C212.392 89.7283 212.585 88.982 212.97 88.3316C213.354 87.6812 213.878 87.1748 214.541 86.8123C215.204 86.4391 215.963 86.2525 216.818 86.2525C217.663 86.2525 218.416 86.4391 219.079 86.8123C219.753 87.1748 220.277 87.6812 220.651 88.3316C221.036 88.9713 221.228 89.7177 221.228 90.5706C221.228 91.413 221.036 92.1593 220.651 92.8097C220.277 93.4601 219.753 93.9719 219.079 94.345C218.416 94.7182 217.663 94.9048 216.818 94.9048ZM216.818 93.5614C217.363 93.5614 217.85 93.4388 218.277 93.1935C218.716 92.9483 219.058 92.6018 219.304 92.154C219.55 91.6955 219.672 91.1677 219.672 90.5706C219.672 89.9629 219.55 89.4405 219.304 89.0033C219.058 88.5555 218.716 88.209 218.277 87.9638C217.85 87.7185 217.363 87.5959 216.818 87.5959C216.273 87.5959 215.786 87.7185 215.359 87.9638C214.931 88.209 214.589 88.5555 214.333 89.0033C214.076 89.4405 213.948 89.9629 213.948 90.5706C213.948 91.1677 214.076 91.6955 214.333 92.154C214.589 92.6018 214.931 92.9483 215.359 93.1935C215.786 93.4388 216.273 93.5614 216.818 93.5614Z" fill="white"/>
<path d="M223.517 94.8088V86.3325H224.993V88.6355L224.848 88.0597C225.083 87.4733 225.479 87.0255 226.035 86.7163C226.591 86.4071 227.275 86.2525 228.088 86.2525V87.7399C228.023 87.7292 227.959 87.7239 227.895 87.7239C227.842 87.7239 227.788 87.7239 227.735 87.7239C226.912 87.7239 226.259 87.9691 225.778 88.4596C225.297 88.95 225.057 89.659 225.057 90.5866V94.8088H223.517Z" fill="white"/>
<path d="M233.408 94.9048C232.553 94.9048 231.89 94.6756 231.42 94.2171C230.949 93.7586 230.714 93.1029 230.714 92.2499V84.4773H232.254V92.186C232.254 92.6444 232.366 92.9963 232.59 93.2415C232.826 93.4867 233.157 93.6093 233.585 93.6093C234.066 93.6093 234.467 93.4761 234.787 93.2095L235.268 94.313C235.033 94.5156 234.75 94.6649 234.419 94.7609C234.098 94.8568 233.761 94.9048 233.408 94.9048ZM229.271 87.5959V86.3325H234.691V87.5959H229.271Z" fill="white"/>
<path d="M236.837 97.1758L237.639 93.9452L237.847 94.8728C237.537 94.8728 237.275 94.7768 237.062 94.5849C236.859 94.393 236.757 94.1318 236.757 93.8013C236.757 93.4814 236.859 93.2202 237.062 93.0176C237.275 92.815 237.532 92.7137 237.831 92.7137C238.141 92.7137 238.393 92.8204 238.585 93.0336C238.777 93.2362 238.874 93.4921 238.874 93.8013C238.874 93.9079 238.863 94.0145 238.842 94.1211C238.831 94.2171 238.804 94.3344 238.761 94.473C238.729 94.6009 238.676 94.7609 238.601 94.9528L237.847 97.1758H236.837Z" fill="white"/>
<path d="M248.16 94.8088V85.005H244.312V83.6136H253.596V85.005H249.748V94.8088H248.16Z" fill="white"/>
<path d="M259.817 86.2525C260.512 86.2525 261.121 86.3858 261.645 86.6523C262.18 86.9189 262.596 87.324 262.896 87.8678C263.195 88.4116 263.345 89.0993 263.345 89.9309V94.8088H261.805V90.1068C261.805 89.2859 261.602 88.6675 261.196 88.2516C260.8 87.8358 260.239 87.6279 259.512 87.6279C258.967 87.6279 258.491 87.7345 258.085 87.9478C257.679 88.161 257.363 88.4755 257.139 88.8914C256.925 89.3072 256.818 89.8243 256.818 90.4427V94.8088H255.279V82.9419H256.818V88.6195L256.514 88.0117C256.791 87.4573 257.219 87.0255 257.796 86.7163C258.374 86.4071 259.047 86.2525 259.817 86.2525Z" fill="white"/>
<path d="M266.354 94.8088V86.3325H267.829V88.6355L267.685 88.0597C267.92 87.4733 268.316 87.0255 268.872 86.7163C269.428 86.4071 270.112 86.2525 270.924 86.2525V87.7399C270.86 87.7292 270.796 87.7239 270.732 87.7239C270.678 87.7239 270.625 87.7239 270.572 87.7239C269.748 87.7239 269.096 87.9691 268.615 88.4596C268.134 88.95 267.894 89.659 267.894 90.5866V94.8088H266.354Z" fill="white"/>
<path d="M272.982 94.8088V86.3325H274.521V94.8088H272.982ZM273.752 84.7012C273.452 84.7012 273.201 84.6052 272.998 84.4133C272.806 84.2214 272.709 83.9868 272.709 83.7096C272.709 83.4217 272.806 83.1818 272.998 82.9899C273.201 82.798 273.452 82.702 273.752 82.702C274.051 82.702 274.297 82.798 274.489 82.9899C274.693 83.1712 274.794 83.4004 274.794 83.6776C274.794 83.9655 274.698 84.2107 274.505 84.4133C274.313 84.6052 274.062 84.7012 273.752 84.7012Z" fill="white"/>
<path d="M279.85 94.8088L276.13 86.3325H277.733L281.037 94.0092H280.267L283.635 86.3325H285.142L281.422 94.8088H279.85Z" fill="white"/>
<path d="M290.288 94.9048C289.38 94.9048 288.578 94.7182 287.883 94.345C287.199 93.9719 286.664 93.4601 286.28 92.8097C285.905 92.1593 285.718 91.413 285.718 90.5706C285.718 89.7283 285.9 88.982 286.264 88.3316C286.638 87.6812 287.145 87.1748 287.787 86.8123C288.439 86.4391 289.171 86.2525 289.984 86.2525C290.807 86.2525 291.534 86.4338 292.165 86.7963C292.795 87.1588 293.287 87.6706 293.64 88.3316C294.003 88.982 294.185 89.7443 294.185 90.6186C294.185 90.6826 294.18 90.7572 294.169 90.8425C294.169 90.9278 294.164 91.0078 294.153 91.0824H286.921V89.9789H293.351L292.726 90.3627C292.737 89.819 292.624 89.3338 292.389 88.9074C292.154 88.4809 291.828 88.1504 291.411 87.9158C291.005 87.6706 290.529 87.5479 289.984 87.5479C289.449 87.5479 288.974 87.6706 288.557 87.9158C288.14 88.1504 287.814 88.4862 287.578 88.9234C287.343 89.3498 287.226 89.8403 287.226 90.3947V90.6506C287.226 91.2157 287.354 91.7222 287.611 92.17C287.878 92.6071 288.247 92.9483 288.717 93.1935C289.187 93.4388 289.727 93.5614 290.337 93.5614C290.839 93.5614 291.293 93.4761 291.7 93.3055C292.117 93.1349 292.48 92.879 292.79 92.5378L293.64 93.5294C293.255 93.9772 292.774 94.3184 292.197 94.5529C291.63 94.7875 290.994 94.9048 290.288 94.9048Z" fill="white"/>
<defs>
<filter id="filter0_d_1610_17721" x="0.917969" y="0.247681" width="85.6211" height="114.499" filterUnits="userSpaceOnUse" color-interpolation-filters="sRGB">
<feFlood flood-opacity="0" result="BackgroundImageFix"/>
<feColorMatrix in="SourceAlpha" type="matrix" values="0 0 0 0 0 0 0 0 0 0 0 0 0 0 0 0 0 0 127 0" result="hardAlpha"/>
<feOffset dx="1" dy="1"/>
<feGaussianBlur stdDeviation="6"/>
<feComposite in2="hardAlpha" operator="out"/>
<feColorMatrix type="matrix" values="0 0 0 0 0 0 0 0 0 0 0 0 0 0 0 0 0 0 0.12 0"/>
<feBlend mode="normal" in2="BackgroundImageFix" result="effect1_dropShadow_1610_17721"/>
<feBlend mode="normal" in="SourceGraphic" in2="effect1_dropShadow_1610_17721" result="shape"/>
</filter>
</defs>
</svg>
