<svg width="149" height="72" viewBox="0 0 149 72" fill="none" xmlns="http://www.w3.org/2000/svg">
<path d="M70.0917 25.6055L70.0773 19.2274L67.0417 24.48H65.9651L62.9437 19.3634V25.6055H60.7031V14.9758H62.6781L66.5391 21.5817L70.3429 14.9758H72.302L72.3322 25.6055H70.0917Z" fill="#09152E"/>
<path d="M81.9226 21.4605L80.2863 17.3908L78.6516 21.4605H81.9226ZM82.6748 23.3282H77.8835L76.9708 25.6055H74.5234L79.1223 14.9758H81.4806L86.0937 25.6055H83.5876L82.6748 23.3282Z" fill="#09152E"/>
<path d="M94.2469 17.458C93.8732 17.1401 93.3278 16.9796 92.6106 16.9796H90.6658V20.6855H92.6106C93.3278 20.6855 93.8732 20.5233 94.2469 20.1989C94.6206 19.8762 94.8067 19.4191 94.8067 18.8325C94.8067 18.2362 94.6206 17.7758 94.2469 17.458ZM94.8512 25.6055L92.8619 22.6434H92.7442H90.6658V25.6055H88.2773V14.9742H92.7442C93.657 14.9742 94.4505 15.1315 95.1247 15.4444C95.7974 15.7606 96.3158 16.2046 96.6784 16.7829C97.0425 17.358 97.2238 18.0412 97.2238 18.8325C97.2238 19.6206 97.0393 20.3022 96.672 20.8739C96.3031 21.4474 95.7799 21.8832 95.1025 22.1879L97.4162 25.6055H94.8512Z" fill="#09152E"/>
<path d="M101.237 25.4459C100.476 25.2165 99.8651 24.9216 99.4023 24.5579L100.213 22.7049C100.655 23.0391 101.18 23.3062 101.791 23.5094C102.4 23.7125 103.009 23.8141 103.618 23.8141C104.295 23.8141 104.796 23.7092 105.121 23.5012C105.445 23.2964 105.607 23.0195 105.607 22.6754C105.607 22.4215 105.512 22.2118 105.319 22.0447C105.129 21.8776 104.882 21.7432 104.583 21.6433C104.283 21.54 103.877 21.4303 103.367 21.309C102.581 21.1157 101.937 20.9224 101.436 20.7307C100.935 20.539 100.506 20.2294 100.147 19.805C99.7888 19.379 99.6091 18.8122 99.6091 18.1044C99.6091 17.4867 99.7713 16.9281 100.096 16.4267C100.42 15.9237 100.908 15.5273 101.562 15.2356C102.215 14.9407 103.014 14.7933 103.957 14.7933C104.615 14.7933 105.259 14.8752 105.887 15.0357C106.517 15.1996 107.067 15.4322 107.538 15.7353L106.802 17.6031C105.847 17.046 104.895 16.7675 103.942 16.7675C103.274 16.7675 102.78 16.8789 102.46 17.1017C102.141 17.3245 101.982 17.6194 101.982 17.9815C101.982 18.3469 102.166 18.6172 102.535 18.7942C102.902 18.9727 103.465 19.1464 104.222 19.3201C105.008 19.5118 105.652 19.7034 106.153 19.8951C106.654 20.0868 107.083 20.3916 107.442 20.8077C107.8 21.2222 107.98 21.7842 107.98 22.4919C107.98 23.0998 107.816 23.6535 107.487 24.1549C107.158 24.6579 106.663 25.0543 106.005 25.346C105.347 25.6409 104.547 25.7867 103.604 25.7867C102.788 25.7867 101.999 25.6736 101.237 25.4459Z" fill="#09152E"/>
<path d="M116.759 21.4605L115.122 17.3908L113.488 21.4605H116.759ZM117.511 23.3282H112.719L111.807 25.6055H109.359L113.958 14.9758H116.316L120.93 25.6055H118.424L117.511 23.3282Z" fill="#09152E"/>
<path d="M67.6749 35.8331H69.8567V40.1469C69.2969 40.581 68.6481 40.9169 67.9103 41.1479C67.174 41.3822 66.4314 41.4969 65.6856 41.4969C64.6138 41.4969 63.6517 41.261 62.7962 40.7908C61.9423 40.3205 61.2712 39.6685 60.7846 38.8329C60.298 37.9973 60.0547 37.0536 60.0547 36.0018C60.0547 34.9484 60.298 34.0047 60.7846 33.1691C61.2712 32.3335 61.947 31.6815 62.8121 31.2112C63.6756 30.741 64.6488 30.5035 65.7301 30.5035C66.6333 30.5035 67.4539 30.6608 68.1901 30.9737C68.928 31.2899 69.5466 31.7437 70.0475 32.3417L68.5145 33.7999C67.7783 33.0003 66.8894 32.5989 65.8478 32.5989C65.1894 32.5989 64.6042 32.7415 64.0938 33.0249C63.5833 33.3084 63.1842 33.7081 62.8996 34.2242C62.6149 34.7403 62.4718 35.3317 62.4718 36.0018C62.4718 36.6588 62.6149 37.2453 62.8996 37.7631C63.1842 38.2775 63.5802 38.6805 64.0858 38.9689C64.5915 39.2589 65.1704 39.4031 65.8176 39.4031C66.5061 39.4031 67.1247 39.2507 67.6749 38.946V35.8331Z" fill="#09152E"/>
<path d="M73.168 30.686H75.5549V39.312H80.7294V41.3157H73.168V30.686Z" fill="#09152E"/>
<path d="M89.6474 38.9689C90.1388 38.6805 90.5252 38.2775 90.8051 37.7631C91.0849 37.2453 91.2249 36.6588 91.2249 36.0002C91.2249 35.3432 91.0849 34.7567 90.8051 34.2389C90.5252 33.7229 90.1388 33.3215 89.6474 33.0331C89.156 32.7431 88.6058 32.5989 87.9968 32.5989C87.3877 32.5989 86.8375 32.7431 86.3461 33.0331C85.8548 33.3215 85.4683 33.7229 85.1885 34.2389C84.9086 34.7567 84.7687 35.3432 84.7687 36.0002C84.7687 36.6588 84.9086 37.2453 85.1885 37.7631C85.4683 38.2775 85.8548 38.6805 86.3461 38.9689C86.8375 39.2589 87.3877 39.4031 87.9968 39.4031C88.6058 39.4031 89.156 39.2589 89.6474 38.9689ZM85.101 40.7826C84.2407 40.3074 83.5681 39.6521 83.0815 38.8165C82.5949 37.981 82.3516 37.0438 82.3516 36.0002C82.3516 34.9582 82.5949 34.0194 83.0815 33.1855C83.5681 32.3483 84.2407 31.6946 85.101 31.2178C85.9613 30.7427 86.925 30.5035 87.9968 30.5035C89.067 30.5035 90.0306 30.7427 90.8862 31.2178C91.7401 31.6946 92.4127 32.3483 92.9041 33.1855C93.3955 34.0194 93.642 34.9582 93.642 36.0002C93.642 37.0438 93.3955 37.981 92.9041 38.8165C92.4127 39.6521 91.7401 40.3074 90.8862 40.7826C90.0306 41.2593 89.067 41.4969 87.9968 41.4969C86.925 41.4969 85.9613 41.2593 85.101 40.7826Z" fill="#09152E"/>
<path d="M103.123 39.1449C103.443 38.9303 103.602 38.6026 103.602 38.1553C103.602 37.2755 102.969 36.8365 101.7 36.8365H98.9155V39.4627H101.7C102.33 39.4627 102.804 39.3563 103.123 39.1449ZM98.9155 32.539V35.0441H101.288C101.878 35.0441 102.325 34.9392 102.63 34.7262C102.934 34.5133 103.087 34.1987 103.087 33.7842C103.087 33.3697 102.934 33.0568 102.63 32.8503C102.325 32.6422 101.878 32.539 101.288 32.539H98.9155ZM105.504 36.7529C105.838 37.2018 106.005 37.7572 106.005 38.4158C106.005 39.3464 105.653 40.064 104.95 40.5637C104.247 41.0651 103.223 41.3157 101.878 41.3157H96.543V30.686H101.582C102.84 30.686 103.805 30.9334 104.48 31.4299C105.152 31.9263 105.488 32.5996 105.488 33.4483C105.488 33.966 105.369 34.4264 105.127 34.8311C104.887 35.2358 104.55 35.5553 104.117 35.7879C104.707 35.9796 105.17 36.3023 105.504 36.7529Z" fill="#09152E"/>
<path d="M114.966 37.1707L113.329 33.101L111.695 37.1707H114.966ZM115.718 39.0384H110.926L110.014 41.3157H107.566L112.165 30.686H114.524L119.137 41.3157H116.631L115.718 39.0384Z" fill="#09152E"/>
<path d="M121.312 30.686H123.699V39.312H128.874V41.3157H121.312V30.686Z" fill="#09152E"/>
<path d="M60.7031 46.3958H63.0916V55.0217H68.2645V57.0255H60.7031V46.3958Z" fill="#09152E"/>
<path d="M77.1747 54.6786C77.6661 54.3903 78.0525 53.9872 78.3324 53.4728C78.6123 52.9551 78.7522 52.3685 78.7522 51.7099C78.7522 51.0529 78.6123 50.4664 78.3324 49.9487C78.0525 49.4326 77.6661 49.0312 77.1747 48.7428C76.6834 48.4528 76.1332 48.3087 75.5241 48.3087C74.9151 48.3087 74.3649 48.4528 73.8735 48.7428C73.3821 49.0312 72.9957 49.4326 72.7158 49.9487C72.4359 50.4664 72.296 51.0529 72.296 51.7099C72.296 52.3685 72.4359 52.9551 72.7158 53.4728C72.9957 53.9872 73.3821 54.3903 73.8735 54.6786C74.3649 54.9686 74.9151 55.1128 75.5241 55.1128C76.1332 55.1128 76.6834 54.9686 77.1747 54.6786ZM72.6284 56.4923C71.7681 56.0172 71.0954 55.3618 70.6088 54.5262C70.1222 53.6907 69.8789 52.7535 69.8789 51.7099C69.8789 50.6679 70.1222 49.7291 70.6088 48.8936C71.0954 48.058 71.7681 47.4043 72.6284 46.9275C73.4887 46.4524 74.4539 46.2132 75.5241 46.2132C76.5943 46.2132 77.558 46.4524 78.4135 46.9275C79.2674 47.4043 79.9401 48.058 80.4315 48.8936C80.9228 49.7291 81.1693 50.6679 81.1693 51.7099C81.1693 52.7535 80.9228 53.6907 80.4315 54.5262C79.9401 55.3618 79.2674 56.0172 78.4135 56.4923C77.558 56.969 76.5943 57.2066 75.5241 57.2066C74.4539 57.2066 73.4887 56.969 72.6284 56.4923Z" fill="#09152E"/>
<path d="M91.046 51.5428H93.2278V55.8566C92.668 56.2908 92.0192 56.6266 91.2814 56.8576C90.5451 57.0919 89.8025 57.2066 89.0567 57.2066C87.9849 57.2066 87.0228 56.9707 86.1673 56.5005C85.3133 56.0303 84.6423 55.3782 84.1557 54.5426C83.6691 53.7071 83.4258 52.7634 83.4258 51.7115C83.4258 50.6581 83.6691 49.7144 84.1557 48.8788C84.6423 48.0432 85.3181 47.3912 86.1816 46.921C87.0467 46.4491 88.0199 46.2132 89.1012 46.2132C90.0044 46.2132 90.825 46.3705 91.5612 46.6834C92.2991 46.9996 92.9177 47.4534 93.4186 48.0514L91.8856 49.5096C91.1494 48.7101 90.2604 48.3087 89.2189 48.3087C88.5605 48.3087 87.9753 48.4512 87.4649 48.7346C86.9544 49.0181 86.5553 49.4178 86.2706 49.9339C85.986 50.45 85.8429 51.0414 85.8429 51.7115C85.8429 52.3685 85.986 52.9551 86.2706 53.4728C86.5553 53.9872 86.9512 54.3903 87.4569 54.6786C87.9626 54.9686 88.5399 55.1128 89.1887 55.1128C89.8772 55.1128 90.4958 54.9604 91.046 54.6557V51.5428Z" fill="#09152E"/>
<path d="M96.5391 46.3953H98.9275V57.0255H96.5391V46.3953Z" fill="#09152E"/>
<path d="M103.499 56.8658C102.737 56.6365 102.127 56.3415 101.664 55.9778L102.475 54.1248C102.917 54.4591 103.442 54.7261 104.053 54.9293C104.662 55.1324 105.271 55.234 105.88 55.234C106.557 55.234 107.058 55.1292 107.382 54.9211C107.707 54.7147 107.869 54.4394 107.869 54.0954C107.869 53.8414 107.774 53.6317 107.581 53.4646C107.39 53.2975 107.144 53.1631 106.845 53.0632C106.544 52.96 106.14 52.8502 105.628 52.729C104.843 52.5356 104.199 52.3423 103.698 52.1506C103.197 51.9589 102.768 51.6493 102.408 51.2249C102.05 50.799 101.871 50.2321 101.871 49.5243C101.871 48.9067 102.033 48.348 102.357 47.8466C102.682 47.3437 103.17 46.9472 103.824 46.6539C104.477 46.3606 105.275 46.2132 106.218 46.2132C106.877 46.2132 107.521 46.2951 108.149 46.4557C108.779 46.6179 109.329 46.8522 109.8 47.1553L109.063 49.023C108.109 48.4659 107.157 48.1874 106.204 48.1874C105.536 48.1874 105.042 48.2988 104.722 48.5216C104.402 48.7445 104.243 49.0394 104.243 49.4014C104.243 49.7668 104.428 50.0371 104.797 50.2141C105.164 50.3927 105.727 50.5663 106.484 50.74C107.27 50.9317 107.914 51.1234 108.414 51.3151C108.915 51.5067 109.345 51.8115 109.704 52.2276C110.062 52.6421 110.242 53.2041 110.242 53.9119C110.242 54.5197 110.078 55.0735 109.749 55.5748C109.419 56.0761 108.925 56.4743 108.267 56.7659C107.608 57.0608 106.808 57.2066 105.865 57.2066C105.05 57.2066 104.261 57.0936 103.499 56.8658Z" fill="#09152E"/>
<path d="M114.977 48.3995H111.676V46.3941H120.665V48.3995H117.364V57.0255H114.977V48.3995Z" fill="#09152E"/>
<path d="M123.059 46.3953H125.445V57.0255H123.059V46.3953Z" fill="#09152E"/>
<path d="M131.081 56.5005C130.232 56.0303 129.563 55.3766 129.078 54.5426C128.591 53.7071 128.348 52.7634 128.348 51.7099C128.348 50.6581 128.591 49.7127 129.078 48.8788C129.563 48.0432 130.232 47.3895 131.081 46.9193C131.93 46.4475 132.886 46.2132 133.948 46.2132C134.842 46.2132 135.65 46.3738 136.372 46.6998C137.094 47.0242 137.701 47.4878 138.193 48.0957L136.66 49.5538C135.962 48.7248 135.098 48.3087 134.066 48.3087C133.427 48.3087 132.857 48.4528 132.357 48.7428C131.854 49.0295 131.464 49.4326 131.185 49.9487C130.905 50.4647 130.765 51.0529 130.765 51.7099C130.765 52.3685 130.905 52.9551 131.185 53.4711C131.464 53.9872 131.854 54.3903 132.357 54.6786C132.857 54.967 133.427 55.1111 134.066 55.1111C135.098 55.1111 135.962 54.6917 136.66 53.8512L138.193 55.3077C137.701 55.9254 137.092 56.3973 136.365 56.7216C135.637 57.0444 134.828 57.2066 133.932 57.2066C132.881 57.2066 131.93 56.9707 131.081 56.5005Z" fill="#09152E"/>
<path d="M141.835 56.8658C141.073 56.6365 140.463 56.3415 140 55.9778L140.811 54.1248C141.253 54.4591 141.778 54.7261 142.388 54.9293C142.998 55.1324 143.607 55.234 144.216 55.234C144.893 55.234 145.394 55.1292 145.718 54.9211C146.043 54.7147 146.205 54.4394 146.205 54.0954C146.205 53.8414 146.11 53.6317 145.917 53.4646C145.726 53.2975 145.48 53.1631 145.181 53.0632C144.88 52.96 144.475 52.8502 143.964 52.729C143.179 52.5356 142.535 52.3423 142.034 52.1506C141.533 51.9589 141.104 51.6493 140.744 51.2249C140.386 50.799 140.207 50.2321 140.207 49.5243C140.207 48.9067 140.369 48.348 140.693 47.8466C141.018 47.3437 141.506 46.9472 142.159 46.6539C142.813 46.3606 143.611 46.2132 144.554 46.2132C145.213 46.2132 145.857 46.2951 146.485 46.4557C147.115 46.6179 147.665 46.8522 148.135 47.1553L147.399 49.023C146.445 48.4659 145.493 48.1874 144.54 48.1874C143.872 48.1874 143.378 48.2988 143.058 48.5216C142.738 48.7445 142.579 49.0394 142.579 49.4014C142.579 49.7668 142.764 50.0371 143.133 50.2141C143.5 50.3927 144.063 50.5663 144.82 50.74C145.605 50.9317 146.249 51.1234 146.75 51.3151C147.251 51.5067 147.681 51.8115 148.04 52.2276C148.398 52.6421 148.578 53.2041 148.578 53.9119C148.578 54.5197 148.414 55.0735 148.085 55.5748C147.755 56.0761 147.261 56.4743 146.602 56.7659C145.944 57.0608 145.144 57.2066 144.201 57.2066C143.386 57.2066 142.597 57.0936 141.835 56.8658Z" fill="#09152E"/>
<path d="M32.1118 13.9965C31.6077 14.4684 31.0273 12.9906 31.1243 12.3926C31.1752 12.0518 31.6173 11.7716 31.7985 12.0518L31.8017 12.0567C31.8621 12.178 31.8669 12.3942 31.9162 12.658C31.9464 12.8218 31.9973 13.0037 32.053 13.1839C32.1404 13.4854 32.2692 13.7655 32.1134 13.9949L32.1118 13.9965ZM6.42216 28.7746L7.33494 28.3142L8.86471 27.5458C7.00736 25.0604 5.93398 22.1326 5.93398 18.9985C5.93398 16.4295 6.65593 13.9998 7.93762 11.8388C8.13958 12.0764 8.31291 12.3582 8.39242 12.6449C8.56257 13.2626 8.34949 13.9523 8.50055 14.5765C8.62936 15.086 8.94422 15.4137 9.17162 15.8446C9.29088 16.0494 9.41651 16.2788 9.52782 16.4836C9.5644 16.5573 9.62641 16.6441 9.66776 16.6933C9.68366 16.708 9.69956 16.7179 9.71228 16.7031C9.75363 16.6556 9.6773 16.3394 9.71228 16.2804C9.92378 16.2329 10.3738 17.3437 10.5503 17.5813C11.2134 18.7248 12.1994 18.1547 13.0072 19.1787C13.1821 19.3769 13.357 19.5719 13.5431 19.7488C13.7752 19.97 14.0185 20.1977 14.1171 20.4451C14.2237 20.6991 14.1807 20.9907 14.1235 21.2627C13.9772 21.8328 13.8722 22.2391 14.0742 22.8502C14.2348 23.4695 14.5862 24.0069 14.9281 24.5001L15.6278 24.1478V22.8093C15.6278 21.5707 16.6058 20.5664 17.8064 20.5664H17.8477C17.8223 20.5385 17.7984 20.5139 17.773 20.4877C17.4152 20.1338 17.0256 19.8733 16.6058 19.6587C16.2369 19.4916 15.8838 19.313 15.5006 19.2737C15.2032 19.2442 14.9265 19.3163 14.6467 19.4113C14.3366 19.5195 14.0042 19.5883 13.7689 19.2622C13.6417 19.1099 13.5208 18.9378 13.4238 18.7494C13.1948 18.3529 13.1662 17.6763 12.7543 17.6026C12.3377 17.6124 11.8877 17.8385 11.8352 17.0259C11.8129 15.9839 12.9118 15.5055 13.5129 15.938C13.7005 16.0691 13.8818 16.2853 13.9692 16.3115C14.0853 16.3394 14.0901 16.092 14.1299 15.9609C14.1712 15.7742 14.2253 15.5726 14.2921 15.3941C14.494 14.8681 14.8677 14.4143 15.1428 13.949C15.3177 13.6738 15.4815 13.3592 15.693 13.1331C15.8695 12.9414 16.054 12.8284 16.2544 12.7055C16.4563 12.5843 16.7044 12.4532 16.8459 12.3729C16.9397 12.3254 17.0161 12.2402 16.9827 12.1386C16.9254 11.9519 16.6662 11.8552 16.7171 11.6307C16.7934 11.3555 17.1719 11.2326 17.3945 11.2375C17.6092 11.2441 17.6219 11.7061 17.8605 11.7323C17.9479 11.7421 18.0242 11.6635 18.0513 11.5521C18.126 11.2523 17.9145 10.864 17.7857 10.6051C17.6028 10.2365 17.4216 9.82035 17.1321 9.58279C16.8077 9.28952 16.3816 9.10766 15.9793 8.97987C15.4449 8.80293 15.2414 9.20433 15.1364 9.84492C15.0553 10.2529 14.9218 10.8755 14.5385 10.7444C14.3477 10.687 14.1473 10.5478 13.9502 10.4216C13.7212 10.2562 13.357 10.1054 13.2934 9.78103C13.2441 9.39438 13.6782 9.0962 13.9263 8.97987C14.1473 8.87829 14.335 8.8701 14.5449 8.81767C14.7532 8.77671 14.7739 8.63581 14.8518 8.36385C14.9265 8.06894 15.0188 7.67574 15.2287 7.53647C15.3861 7.40213 15.7264 7.41687 15.7852 7.65935C15.798 7.76748 15.7503 7.85432 15.72 7.95753C15.5499 8.37531 15.8552 8.46543 16.124 8.53424C16.7155 8.67186 16.8618 8.33108 17.1512 7.74946C17.3309 7.36445 16.9222 7.05152 16.6932 6.9139C16.2464 6.6321 15.6501 6.48137 15.1285 6.49447C14.1092 6.55346 14.5051 7.38738 14.238 7.58399C14.1235 7.62331 13.9645 7.42179 13.9454 7.2514C13.9184 7.1105 13.9104 6.97124 13.9104 6.83689C13.9104 6.7091 13.912 6.45188 13.7975 6.5043L13.7943 6.50594C13.4254 6.69272 13.4811 7.43817 13.2075 7.76912C13.0501 7.97883 12.7782 8.08696 12.6351 8.05911C12.228 7.93296 12.7527 7.36608 11.894 7.37591C11.875 7.37919 11.8543 7.38083 11.832 7.38083C12.5492 6.79757 13.3204 6.26183 14.1362 5.77523C14.2714 5.86371 14.4543 5.91286 14.6435 5.90794C15.2334 5.95709 15.5849 5.5475 16.0699 5.09368C16.1955 4.98227 17.0892 4.32201 17.148 4.51206C17.0828 4.6677 16.9 4.80205 16.8109 4.95933C16.6933 5.12972 16.6567 5.36564 16.8491 5.44429C17.5408 5.67038 17.9956 5.17723 18.3741 6.37979C18.7271 7.25631 18.3041 8.02798 18.9418 8.79638C19.5174 9.48121 19.7782 8.50475 20.1392 8.04109C20.3571 7.75274 20.6576 7.53484 20.9693 7.36444C21.3652 7.13671 21.7898 7.01875 22.1603 6.7304C22.445 6.48465 22.7121 6.13731 22.8823 5.75721C23.0159 5.45248 23.0779 5.08876 23.0827 4.74634C23.089 4.55957 23.0954 4.37607 23.1479 4.20077C23.2131 3.9714 23.345 3.78299 23.4516 3.60113C23.6058 3.32752 23.345 3.3521 23.097 3.30786C22.9729 3.2882 22.8521 3.26199 22.7312 3.22594L22.7233 3.22267C22.4355 3.11617 22.1206 3.05719 21.7962 3.03753H21.801H21.8041C23.0032 2.8442 24.2419 2.74426 25.5061 2.74426C31.3628 2.74426 36.6248 4.89052 40.2155 8.28521C39.8545 8.10171 39.4919 7.91821 39.1278 7.73144C38.7334 7.53975 38.4297 7.23829 38.1259 6.89751C37.6139 6.29787 36.7695 6.33719 36.1334 6.38143C35.7693 6.40437 35.3876 6.3929 35.0616 6.62063C34.6593 6.8156 34.2252 6.72712 34.0614 7.37919C34.0407 7.42507 34.0248 7.49388 33.9819 7.49224C33.7592 7.37264 33.5907 6.35685 33.2838 6.8074C33.0627 7.18095 32.6588 7.05807 32.336 7.0466C31.9989 7.03677 31.6141 7.13835 31.2579 7.17603C30.8842 7.22846 30.5121 7.37428 30.1893 7.54467C30.035 7.62495 29.3973 7.91657 29.3846 7.57743C29.4069 7.448 29.5738 7.26942 29.5516 7.12197C29.383 6.78283 28.8074 6.52233 28.5164 6.40273L28.5068 6.39945C28.0473 6.21104 27.6147 6.32409 27.2204 6.59933C27.6402 6.89588 27.9868 7.30383 28.2222 7.80025C29.0189 9.24365 29.5913 10.7722 29.9332 12.3713C30.2386 12.5728 30.5916 12.8612 30.4421 13.0692L30.4373 13.0741C30.3356 13.1446 30.2131 13.1692 30.0859 13.1708C30.1575 13.6017 30.2115 14.0375 30.2497 14.4782L30.4993 17.3568C30.6441 17.6583 30.7808 17.9679 30.8428 18.294C30.873 18.4775 30.8953 18.715 30.7395 18.7265C30.6933 18.7085 30.6504 18.6823 30.6091 18.6429L30.8301 21.1939C30.9526 21.0857 31.0861 20.9891 31.2277 20.9071C31.3278 20.7433 31.4312 20.5598 31.5393 20.3452C32.2231 18.9051 30.2497 19.5293 31.7238 18.5495C32.1818 18.2645 32.9673 17.8106 32.7908 17.0537C32.6334 16.5671 31.9766 16.4606 31.7365 15.9937C31.6952 15.9085 31.6316 15.7955 31.7063 15.7316C31.9432 15.6939 32.2835 15.9871 32.5316 16.074C33.2027 16.341 33.9596 16.3001 34.4907 16.9784C34.6752 17.2044 34.8135 17.4715 34.9408 17.7697C35.1682 18.1629 35.5021 20.2321 35.933 19.0165C36.0905 18.5971 36.2797 18.0171 36.5962 17.7189C37.1639 17.0603 37.8842 17.6829 38.2118 18.3955C38.5553 19.0361 38.6078 20.1715 39.1039 20.6843C39.115 20.6892 39.1198 20.6843 39.1198 20.6663C39.1134 20.6221 39.1023 20.5762 39.08 20.5189C38.991 20.2567 38.8256 19.8275 38.8002 19.5555C38.77 19.3671 38.8701 19.2491 39.0133 19.2786C39.926 19.4719 39.7543 19.082 39.7289 18.117C39.7304 17.9532 39.7607 17.8025 39.8481 17.6878C40.0437 17.4027 40.5653 17.2651 40.9072 16.9292C41.5433 16.3165 41.2904 15.512 40.9994 14.7584C40.9199 14.4438 41.0583 14.2964 41.3016 14.3897C41.5623 14.4864 41.8041 14.8387 42.0458 14.9812C42.1968 15.0336 42.1937 14.5863 42.3638 14.2882C42.4036 14.2095 42.4513 14.1374 42.5037 14.0703C42.7757 13.7508 43.213 13.3903 43.046 12.83C42.9601 12.4761 42.6977 12.2533 42.6962 11.9306C42.7152 11.8044 42.825 11.7258 42.9872 11.6848C44.3261 13.8835 45.0799 16.3656 45.0799 18.9935C45.0799 20.4517 44.8477 21.8672 44.4104 23.2123C44.3897 23.1665 44.3675 23.1189 44.3436 23.0763C44.2402 22.8814 44.1146 22.9944 44.0128 23.1173C43.8809 23.2598 43.733 23.4417 43.5851 23.4351C43.5087 23.4319 43.4388 23.368 43.364 23.2811C43.0237 22.8208 42.9045 22.9272 42.4847 23.1075C42.1555 23.2533 41.847 23.4941 41.5449 23.7628C41.3095 23.9758 41.0757 24.2822 40.8277 24.5345C40.508 24.8622 40.1487 25.2128 40.0548 25.7633C40.0087 26.0025 39.9881 26.2711 39.9912 26.5169L41.0805 27.0641C41.4065 26.8986 41.7564 26.7135 42.0585 26.6824C42.2986 26.6349 42.4767 26.7102 42.6516 26.8249C42.4815 27.0821 42.3034 27.3344 42.1157 27.5818L44.5599 28.8106C45.0862 28.0668 45.5522 27.2902 45.9561 26.4841C47.1455 24.1151 47.7466 21.5953 47.7466 18.9935C47.7466 16.7473 47.2982 14.5601 46.4077 12.4794C46.2868 12.1927 46.1564 11.9109 46.0181 11.6307C45.9974 11.5865 45.9767 11.5439 45.9561 11.5013C44.8191 9.23382 43.1971 7.20389 41.1346 5.46722C36.946 1.94474 31.3962 7.62939e-06 25.5045 7.62939e-06C19.6129 7.62939e-06 14.0647 1.94474 9.87766 5.47214C8.14117 6.93519 6.71635 8.60633 5.63184 10.4511C5.42829 10.7985 5.23747 11.1507 5.05778 11.5062C4.84469 11.9306 4.65228 12.3582 4.47735 12.7923C3.67112 14.7813 3.26562 16.862 3.26562 18.9985C3.26562 21.6002 3.86831 24.12 5.05778 26.489C5.45373 27.2804 5.91012 28.0406 6.42216 28.7729V28.7746Z" fill="#C0171D"/>
<path d="M40.5108 23.0299C40.7159 23.0562 40.9386 23.0938 41.1389 23.0742C41.22 23.0693 41.4856 23.0168 41.352 22.8858C41.2153 22.7826 41.0817 22.7727 40.9052 22.7367C40.6794 22.7006 40.417 22.6892 40.1959 22.6548C39.8477 22.6056 39.6426 22.4729 39.4899 22.1141C39.3102 21.675 39.0701 21.1245 38.7409 20.7936L38.7314 20.7821C38.4022 20.4233 37.4847 19.6123 38.0524 20.7739C38.3004 21.2556 38.6741 21.9241 38.981 22.3599C39.3738 22.9513 39.959 22.9529 40.5108 23.0299Z" fill="#C0171D"/>
<path d="M50.8913 39.5584L47.1893 35.7443C46.9142 35.4593 46.4435 35.6608 46.4435 36.0622V40.6152H46.4244L46.4228 42.2879C46.4228 43.5331 46.4212 44.6029 46.418 45.5565L46.4101 46.1184C46.3783 48.7316 46.3512 50.7943 45.7247 52.5048C44.2585 56.4712 39.4434 59.1598 34.7873 61.7582L34.6347 61.8451C34.3309 62.0122 34.0288 62.1826 33.7314 62.3497C32.6135 62.9772 31.5115 63.6702 30.4063 64.4386C30.3761 64.4599 30.3459 64.4812 30.3141 64.5041C29.1342 65.3299 27.9495 66.2457 26.7473 67.2599L25.7804 68.0774C25.6198 68.2134 25.3877 68.215 25.2255 68.0774L24.2586 67.2599C23.0564 66.2441 21.8733 65.3299 20.6918 64.5041C20.6187 64.4501 20.5439 64.4009 20.4724 64.3501C19.4085 63.6145 18.3447 62.9493 17.2697 62.3464C16.931 62.1564 16.5843 61.9614 16.2329 61.7681L16.217 61.7582C11.5609 59.1582 6.74578 56.4696 5.27803 52.4949C4.65149 50.7943 4.62605 48.7316 4.59424 46.1217L4.58788 45.5581C4.5847 44.5604 4.58311 43.4889 4.58152 42.2863V40.6119H4.57516V36.0589C4.57516 35.6591 4.10606 35.4576 3.82936 35.7427L0.128969 39.5568C-0.146135 39.8402 0.047869 40.3252 0.437467 40.3252H1.2755C1.51721 40.3252 1.71122 40.5267 1.71122 40.7741V42.2879C1.7144 43.4971 1.7144 44.5718 1.71917 45.5712L1.72553 46.1594C1.76051 48.9462 1.79073 51.353 2.59696 53.5435C4.44317 58.5454 9.73376 61.4994 14.851 64.355L14.8669 64.3649C15.2152 64.5582 15.5602 64.7515 15.899 64.9416C18.0823 66.1671 20.2211 67.6727 22.4394 69.547L25.2239 71.8981C25.3861 72.034 25.6182 72.034 25.7789 71.8981L28.5633 69.5454C30.7784 67.6744 32.9188 66.1671 35.1038 64.9416C35.4011 64.7745 35.6985 64.6074 36.0006 64.4402L36.1517 64.355C41.269 61.4994 46.558 58.5471 48.4058 53.55C49.212 51.3497 49.2422 48.943 49.2772 46.1545L49.2852 45.5696C49.2883 44.6079 49.2899 43.5364 49.2899 42.2879L49.2915 40.7741C49.2915 40.5267 49.4871 40.3252 49.7272 40.3252H50.5812C50.9692 40.3252 51.1648 39.8402 50.8897 39.5568L50.8913 39.5584Z" fill="#09152E"/>
<path d="M44.5179 30.9035C44.5179 30.7446 44.4304 30.5971 44.2905 30.5283L43.5256 30.145L43.0501 29.9058L41.0226 28.89L33.7363 25.2299C33.598 25.1611 33.5089 25.0152 33.5089 24.8563V22.6101C33.5089 22.4004 33.3451 22.2317 33.1432 22.2317H32.5548C32.1286 22.2317 31.7836 22.5888 31.7836 23.0263V23.585C31.7836 23.893 31.4719 24.0945 31.2015 23.9601L30.3206 23.5161L29.4412 23.0754C29.314 23.0115 29.2281 22.8821 29.217 22.7379L28.5555 15.0966L28.5539 15.0786L28.4982 14.4511C28.4728 14.1496 28.4378 13.8531 28.3948 13.5565C28.2072 12.2835 27.8574 11.0433 27.3549 9.86531C27.2292 9.57205 27.0956 9.28533 26.9525 9.0019C26.8651 8.82495 26.7712 8.65456 26.6774 8.4809C26.6727 8.47598 26.6679 8.46779 26.6663 8.45959C26.5343 8.16797 26.3228 7.96153 26.0763 7.84685C25.9125 7.76657 25.7329 7.72725 25.5532 7.72725C25.5373 7.72725 25.5198 7.72889 25.5023 7.72889C25.4864 7.72889 25.4673 7.72725 25.4514 7.72725C25.0045 7.72725 24.5577 7.97136 24.3382 8.45959C24.3351 8.46779 24.3319 8.47598 24.3271 8.4809C23.3094 10.3142 22.6876 12.3491 22.5047 14.4511L22.4507 15.0786L21.7892 22.7396C21.7764 22.8837 21.6906 23.0132 21.5634 23.0771L20.2451 23.739L19.803 23.9618C19.5327 24.0961 19.221 23.8946 19.221 23.5866V23.0263C19.221 22.5888 18.8759 22.2333 18.4497 22.2333H17.863C17.6594 22.2333 17.4956 22.4021 17.4956 22.6101V24.858C17.4956 25.0152 17.4082 25.1611 17.2682 25.2315L15.5715 26.0835L9.98195 28.89L8.18343 29.7911L7.48057 30.1466L6.71568 30.53C6.57574 30.6004 6.48828 30.7462 6.48828 30.9052V32.9892C6.48828 33.248 6.71091 33.4446 6.95739 33.402L9.33155 32.9973L10.2571 32.8401L14.0815 32.188L15.8291 31.8931L16.5924 31.762L21.2167 30.974C21.4504 30.9363 21.6667 31.11 21.6858 31.3508L21.9768 34.9863L22.201 37.7912L22.3155 39.2264V39.2624V62.8958C22.3155 63.0302 22.3807 63.158 22.4888 63.235C23.4684 63.9476 24.4034 64.6833 25.2971 65.4304C25.4466 65.5532 25.6581 65.5532 25.8076 65.4304C26.6631 64.716 27.5552 64.0099 28.4887 63.3283C28.5968 63.2513 28.6588 63.1236 28.6588 62.9892V39.2592C28.6588 39.2461 28.6588 39.2346 28.662 39.2231L28.7797 37.7961L29.0134 34.9896L29.3156 31.3508C29.3362 31.11 29.5509 30.9379 29.7847 30.9756L36.9215 32.1913L40.7459 32.8433L41.9115 33.0416L44.0456 33.4037C44.2936 33.4463 44.5163 33.2513 44.5163 32.9924V30.9068L44.5179 30.9035Z" fill="#09152E"/>
<path d="M14.6895 35.6107H11.471C11.2086 35.6107 10.9955 35.8302 10.9955 36.1005V37.5947C10.9955 37.865 10.7824 38.0829 10.52 38.0829H9.11271C8.85191 38.0829 8.63883 38.3041 8.63883 38.5745V40.2423C8.63883 40.4864 8.4655 40.6929 8.23174 40.7273L6.90551 40.9271C6.67334 40.9632 6.49842 41.168 6.50001 41.4105C6.50001 42.6147 6.5016 44.561 6.50478 45.4965L6.51114 46.0356C6.51432 46.2584 6.68924 48.8945 6.68924 48.8945C6.70515 49.1599 6.72423 49.4155 6.74808 49.6613L6.74967 49.6678C6.826 50.4509 6.95322 51.1358 7.16948 51.7207C8.37803 54.9941 12.8688 57.5008 17.21 59.9256C17.5662 60.1255 17.9208 60.3221 18.2675 60.517C18.7922 60.8119 19.3059 61.1167 19.8068 61.428C20.1248 61.6246 20.5303 61.3903 20.5303 61.0102V36.1022C20.5303 35.8318 20.3172 35.6123 20.0549 35.6123L14.6895 35.6107Z" fill="#005B7F"/>
<path d="M39.5226 35.6114H30.9387C30.6763 35.6114 30.4648 35.831 30.4648 36.1013V61.088C30.4648 61.4681 30.8672 61.7056 31.1836 61.509C31.7259 61.1699 32.2793 60.8389 32.8485 60.5195C33.1984 60.3229 33.5546 60.1263 33.9092 59.9264C38.252 57.5016 42.7428 54.9949 43.9465 51.7346C44.298 50.7761 44.4172 49.5621 44.4665 48.0974L44.4983 46.6884C44.5015 46.4738 44.5031 46.2575 44.5079 46.0347L44.5142 45.4957C44.5174 44.5602 44.519 42.6138 44.519 41.4096C44.519 41.1671 44.3457 40.9607 44.1119 40.9247L42.7618 40.7231C42.5265 40.6887 42.3547 40.4823 42.3547 40.2382V38.5736C42.3547 38.3033 42.1417 38.0837 41.8793 38.0837H40.4735C40.2096 38.0837 39.9981 37.8642 39.9981 37.5939V36.0997C39.9981 35.8293 39.785 35.6114 39.5226 35.6114Z" fill="#005B7F"/>
</svg>
