<svg width="49" height="49" viewBox="0 0 49 49" fill="none" xmlns="http://www.w3.org/2000/svg">
<path d="M26.0322 47.4687C25.9173 47.4687 25.8009 47.4427 25.6892 47.3876C25.3109 47.1977 25.1578 46.7383 25.3462 46.3601L26.8774 43.2976C27.0091 43.0388 27.274 42.875 27.5634 42.875C31.0623 42.875 32.0408 41.7541 33.0407 40.1693C33.2689 39.8125 33.7466 39.7084 34.0957 39.9304C34.4525 40.1555 34.5612 40.6302 34.3346 40.987C33.0254 43.0603 31.5508 44.2991 28.0396 44.4001L26.7166 47.0461C26.5819 47.3141 26.3124 47.4687 26.0322 47.4687Z" fill="#8BC34A"/>
<path d="M42.6208 5.35942C42.0007 4.82807 41.2059 4.57542 40.3928 4.63207C39.5752 4.69639 38.831 5.07461 38.3027 5.69629L37.5156 6.61504V8.97164L39.4664 6.69007C39.7313 6.37923 40.1019 6.19089 40.5107 6.15873C40.9227 6.12964 41.3116 6.2552 41.624 6.52317C41.9348 6.78807 42.1247 7.16017 42.1568 7.56595C42.189 7.97326 42.0604 8.36832 41.7939 8.6807L39.788 11.0281C39.5124 11.3497 39.5507 11.832 39.8722 12.1076C40.1938 12.3802 40.6761 12.3465 40.9517 12.0219L42.9577 9.67448C43.4906 9.05279 43.7478 8.26114 43.685 7.44498C43.6177 6.63036 43.241 5.88923 42.6208 5.35942Z" fill="#8BC34A"/>
<path d="M25.2656 6.125H29.8594C30.282 6.125 30.625 5.782 30.625 5.35938C30.625 4.93675 30.282 4.59375 29.8594 4.59375H25.2656C24.843 4.59375 24.5 4.93675 24.5 5.35938C24.5 5.782 24.843 6.125 25.2656 6.125Z" fill="#8BC34A"/>
<path d="M26.7969 35.2188H28.3281C28.7508 35.2188 29.0938 34.8757 29.0938 34.4531C29.0938 34.0305 28.7508 33.6875 28.3281 33.6875H26.7969C26.3743 33.6875 26.0312 34.0305 26.0312 34.4531C26.0312 34.8757 26.3743 35.2188 26.7969 35.2188Z" fill="#8BC34A"/>
<path d="M37.9947 20.8557C37.2642 20.8557 36.5583 20.5938 36.0056 20.1191C35.3839 19.5893 35.0072 18.8467 34.9429 18.032C34.8801 17.2174 35.1373 16.4257 35.6702 15.8025L35.9122 15.4917C37.0009 14.2146 39.0175 14.0737 40.2517 15.1318C40.8719 15.6617 41.2486 16.4043 41.3129 17.2189C41.3757 18.0336 41.1184 18.8252 40.5855 19.4484L40.3436 19.7593C39.7403 20.4652 38.892 20.8557 37.9947 20.8557ZM38.2596 15.9266C37.8109 15.9266 37.3867 16.121 37.0958 16.4625L36.8523 16.7749C36.5645 17.1102 36.4374 17.5068 36.468 17.9141C36.5002 18.3214 36.69 18.692 37.0009 18.9569C37.618 19.4898 38.6317 19.4071 39.1584 18.79L39.4003 18.4792C39.6882 18.1438 39.8153 17.7472 39.7847 17.3399C39.7525 16.9326 39.5627 16.562 39.2518 16.2971C38.9762 16.0567 38.624 15.9266 38.2596 15.9266Z" fill="#8BC34A"/>
<path d="M37.6236 27.0129C36.8932 27.0129 36.1872 26.7511 35.6345 26.2764C35.0128 25.7466 34.6361 25.0039 34.5718 24.1893C34.509 23.3746 34.7662 22.583 35.2991 21.9598L36.4629 20.6169C37.5102 19.3873 39.5453 19.225 40.7779 20.2846C41.3981 20.8144 41.7748 21.5571 41.8391 22.3717C41.9019 23.1863 41.6446 23.978 41.1117 24.6012L39.948 25.9441C39.3707 26.6209 38.5224 27.0129 37.6236 27.0129ZM38.7873 21.0793C38.3387 21.0793 37.9145 21.2738 37.6236 21.6152L36.4583 22.9597C36.1949 23.2675 36.0663 23.6625 36.0984 24.0714C36.1306 24.4787 36.3205 24.8492 36.6313 25.1141C37.2484 25.6486 38.2606 25.5628 38.7888 24.9472L39.9526 23.6043C40.216 23.2966 40.3446 22.9015 40.3124 22.4926C40.2803 22.0853 40.0904 21.7148 39.7796 21.4499C39.5039 21.2095 39.1502 21.0793 38.7873 21.0793Z" fill="#8BC34A"/>
<path d="M38.2812 15.1716V5.35938C38.2812 3.24931 36.5647 1.53125 34.4531 1.53125H20.6719C18.5603 1.53125 16.8438 3.24931 16.8438 5.35938V22.2031C16.8438 22.6257 17.1868 22.9688 17.6094 22.9688C18.032 22.9688 18.375 22.6257 18.375 22.2031V5.35938C18.375 4.09303 19.4055 3.0625 20.6719 3.0625H34.4531C35.7195 3.0625 36.75 4.09303 36.75 5.35938V15.7397C37.1833 15.3584 37.73 15.167 38.2812 15.1716Z" fill="#8BC34A"/>
<path d="M36.7515 32.4014V34.4532C36.7515 35.7196 35.721 36.7501 34.4547 36.7501H26.7969C26.3743 36.7501 26.0312 37.0931 26.0312 37.5157C26.0312 37.9384 26.3743 38.2814 26.7969 38.2814H34.4547C36.5662 38.2814 38.2828 36.5633 38.2828 34.4532V32.4167C38.0454 32.4963 37.802 32.5484 37.5508 32.5484C37.2813 32.5499 37.0103 32.4994 36.7515 32.4014Z" fill="#8BC34A"/>
<path d="M37.5493 33.3154C36.8189 33.3154 36.113 33.0535 35.5602 32.5788C34.9386 32.049 34.5619 31.3064 34.4976 30.4917C34.4348 29.6771 34.692 28.8855 35.2249 28.2622L36.3887 26.9193C37.436 25.6913 39.4711 25.5274 40.7037 26.5871C41.3239 27.1169 41.7006 27.8595 41.7649 28.6742C41.8277 29.4888 41.5704 30.2804 41.0375 30.9036L39.8738 32.2466C39.2965 32.9234 38.4482 33.3154 37.5493 33.3154ZM38.7131 27.3818C38.2644 27.3818 37.8403 27.5762 37.5493 27.9177L36.3841 29.2622C36.1207 29.5699 35.9921 29.965 36.0242 30.3738C36.0564 30.7812 36.2462 31.1517 36.5571 31.4166C37.1742 31.9495 38.1863 31.8653 38.7146 31.2497L39.8784 29.9068C40.1417 29.599 40.2704 29.204 40.2382 28.7951C40.2061 28.3878 40.0162 28.0172 39.7053 27.7523C39.4297 27.5119 39.0775 27.3818 38.7131 27.3818Z" fill="#8BC34A"/>
<path d="M9.95404 47.4687C9.8392 47.4687 9.72283 47.4427 9.61104 47.3876C9.23283 47.1977 9.0797 46.7383 9.26804 46.3601L12.9568 38.981L11.1377 33.1929C10.7181 31.8546 10.6186 29.7353 10.9126 28.3649L12.2509 22.1373V14.6035C12.2509 14.1809 12.5939 13.8379 13.0165 13.8379L13.234 13.8272C13.9537 13.7782 15.6335 13.671 16.9013 14.8592C17.8798 15.7749 18.3759 17.251 18.3759 19.2447V26.094C19.6515 27.0403 23.8915 30.6694 24.4244 37.4574C24.458 37.8785 24.1426 38.2475 23.7215 38.2812C23.3402 38.3149 22.9314 38.001 22.8992 37.5784C22.3449 30.5316 17.2489 27.1705 17.1969 27.1383C16.9779 26.9944 16.8447 26.7524 16.8447 26.4921V19.2447C16.8447 17.692 16.5109 16.5926 15.854 15.9755C15.2384 15.3982 14.4146 15.3293 13.7837 15.3339L13.7822 22.2184C13.7822 22.272 13.7745 22.3256 13.7638 22.3792L12.4102 28.6864C12.1713 29.7966 12.257 31.6494 12.5985 32.7335L14.511 38.8172C14.5708 39.007 14.5539 39.2107 14.4666 39.3899L10.6385 47.0461C10.5038 47.3141 10.2343 47.4687 9.95404 47.4687Z" fill="#8BC34A"/>
</svg>
