<svg width="48" height="47" viewBox="0 0 48 47" fill="none" xmlns="http://www.w3.org/2000/svg">
<g clip-path="url(#clip0_1314_36675)">
<path d="M47.2969 42.6124H44.588C45.2146 41.7566 45.4728 40.6711 45.2732 39.5938C45.1652 39.0126 44.9304 38.4783 44.599 38.0183C45.193 37.8813 45.7621 37.6122 46.2609 37.213C46.5432 36.9871 46.7084 36.6498 46.7142 36.2883C46.7201 35.9265 46.5659 35.5841 46.2909 35.349L39.783 29.7852C39.304 29.3754 38.9447 28.8433 38.7444 28.2456L37.2239 23.7053C37.2235 23.7039 37.2228 23.7024 37.2224 23.7009L35.8531 19.6136C35.2324 17.7603 33.7485 16.3042 31.8838 15.7186L27.1685 14.2377C28.4487 13.335 29.2874 11.8456 29.2874 10.1632V6.89038C29.2874 4.14197 27.0513 1.90625 24.3032 1.90625C21.5552 1.90625 19.3191 4.14197 19.3191 6.89038V10.1636C19.3191 11.7683 20.0823 13.1976 21.264 14.1095C21.1417 14.1432 21.0198 14.1787 20.8982 14.2168L16.1162 15.7186C14.2515 16.3042 12.7676 17.7603 12.1469 19.6136L9.25525 28.2456C9.05493 28.8433 8.69604 29.3757 8.21704 29.7852L1.70911 35.3494C1.43408 35.5845 1.27991 35.9265 1.28577 36.2883C1.29163 36.6501 1.45679 36.9871 1.73914 37.213C2.26062 37.6305 2.85864 37.9059 3.48193 38.0363C2.89343 39.1191 2.78174 40.4397 3.23547 41.6368C3.37317 41.999 3.55444 42.3253 3.77271 42.6128H0.703125C0.314575 42.6128 0 42.9274 0 43.3159C0 43.7041 0.314575 44.019 0.703125 44.019H42.7866H42.7874H42.7881H47.2969C47.6854 44.019 48 43.7041 48 43.3159C48 42.9274 47.6851 42.6124 47.2969 42.6124ZM31.2953 26.2098L33.7786 32.3889C33.7925 32.4233 33.809 32.4567 33.828 32.4885C34.2675 33.2202 34.8933 33.8263 35.6385 34.2419L36.4618 34.7008L31.2953 33.1232V26.2098ZM38.8689 30.8541L45.1886 36.2568C44.3412 36.823 43.2502 36.8732 42.3475 36.3715L36.3234 33.0137C35.8081 32.7266 35.3727 32.3109 35.0614 31.8103L32.848 26.3025L36.1307 24.8695L37.411 28.692C37.6923 29.5314 38.1965 30.2788 38.8689 30.8541ZM20.7253 10.1636V6.89038C20.7253 4.9176 22.3304 3.3125 24.3032 3.3125C26.276 3.3125 27.8811 4.9176 27.8811 6.89038V10.1636C27.8811 12.1364 26.276 13.7415 24.3032 13.7415C22.3304 13.7415 20.7253 12.1364 20.7253 10.1636ZM16.5374 17.0601L21.3197 15.5586C23.0731 15.0078 24.9269 15.0078 26.6803 15.5586L31.4626 17.0601C32.8989 17.5112 34.0419 18.6326 34.5198 20.0604L35.6825 23.531L32.3232 24.9969L31.2444 22.3126C31.1188 22.0002 30.7896 21.8204 30.4585 21.8845C30.1278 21.9486 29.889 22.2383 29.889 22.5748V32.9404H18.111V22.5748C18.111 22.2383 17.8722 21.9486 17.5415 21.8845C17.2115 21.8204 16.8812 22.0002 16.7556 22.3126L15.8218 24.6359L12.5035 22.9766L13.4802 20.0604C13.9581 18.6326 15.1011 17.5112 16.5374 17.0601ZM9.13074 30.8541C9.80347 30.2788 10.3077 29.5314 10.5886 28.692L12.052 24.3231L15.2955 25.9451L14.7843 27.2169C14.6396 27.5773 14.8143 27.9867 15.1747 28.1317C15.5347 28.2764 15.9445 28.1017 16.0891 27.7413L16.7047 26.2102V33.121L11.6396 34.6444L12.3611 34.2419C13.1063 33.8267 13.7325 33.2206 14.172 32.4889C14.191 32.457 14.2075 32.4237 14.2214 32.3889L14.7469 31.0808C14.892 30.7205 14.7173 30.311 14.3569 30.1664C13.9966 30.0214 13.5872 30.196 13.4421 30.5564L12.9382 31.8103C12.627 32.3113 12.1919 32.7266 11.6766 33.0137L5.6532 36.3711C4.74976 36.8732 3.65918 36.823 2.8114 36.2568L9.13074 30.8541ZM6.71997 42.6124H6.71741C5.69568 42.6124 4.90613 42.0752 4.55054 41.1381C4.14844 40.0775 4.42383 38.8273 5.21741 38.0439L17.5111 34.3467H30.4874L42.1586 37.9106C43.0693 38.1886 43.7168 38.9137 43.8904 39.8501C44.064 40.7865 43.7197 41.6954 42.969 42.2814L42.5453 42.6128H27.6969C27.6061 42.1199 27.3871 41.4644 26.8689 40.881L28.2697 40.8037C28.6575 40.7825 28.9545 40.4507 28.9329 40.0629C28.9116 39.6754 28.5798 39.3788 28.1924 39.3997L24.3816 39.6102C24.2205 39.5813 24.0524 39.5571 23.8759 39.5392L13.0312 38.4065C12.6423 38.3658 12.2992 38.6467 12.2589 39.0327C12.2186 39.4191 12.4991 39.7648 12.8851 39.8051L23.7305 40.9377C23.8945 40.9546 24.0487 40.9777 24.193 41.0055C24.1959 41.0062 24.1992 41.0066 24.2021 41.0073C25.6058 41.2827 26.0995 42.0466 26.2698 42.6124H6.71997Z" fill="#8BC34A"/>
<path d="M31.8746 40.6033C31.8874 40.6033 31.9006 40.6033 31.9138 40.6026L36.6559 40.3407C37.0433 40.3191 37.3403 39.9877 37.3191 39.5999C37.2978 39.2121 36.9657 38.9147 36.5782 38.9367L31.8365 39.1985C31.4487 39.2198 31.1517 39.5516 31.1729 39.939C31.1938 40.3136 31.5036 40.6033 31.8746 40.6033Z" fill="#8BC34A"/>
</g>
<defs>
<clipPath id="clip0_1314_36675">
<rect width="48" height="48" fill="white" transform="translate(0 -1)"/>
</clipPath>
</defs>
</svg>
