<svg width="16" height="16" viewBox="0 0 16 16" fill="none" xmlns="http://www.w3.org/2000/svg">
<path d="M7.88046 14C7.70659 14.001 7.53636 13.951 7.39147 13.8565C7.24658 13.762 7.13359 13.6272 7.06692 13.4693C7.00024 13.3114 6.9829 13.1375 7.0171 12.9699C7.0513 12.8022 7.1355 12.6484 7.25895 12.528L11.8984 7.97437L7.25895 3.42072C7.11554 3.25605 7.0406 3.04422 7.04911 2.82758C7.05762 2.61094 7.14895 2.40543 7.30485 2.25212C7.46075 2.09882 7.66973 2.00901 7.89004 2.00064C8.11035 1.99227 8.32576 2.06596 8.49322 2.20699L13.7454 7.3718C13.9085 7.53309 14 7.75126 14 7.97867C14 8.20608 13.9085 8.42425 13.7454 8.58554L8.49322 13.7504C8.33017 13.9094 8.11011 13.999 7.88046 14Z" fill="white"/>
<path d="M2.87936 14C2.70571 14.001 2.53569 13.9513 2.39098 13.8572C2.24627 13.7631 2.13342 13.6289 2.06683 13.4717C2.00024 13.3145 1.98292 13.1414 2.01708 12.9746C2.05124 12.8077 2.13533 12.6546 2.25863 12.5347L6.8923 8.00175L2.25863 3.46879C2.094 3.30743 2.00151 3.08859 2.00151 2.8604C2.00151 2.63221 2.094 2.41336 2.25863 2.252C2.42325 2.09065 2.64654 2 2.87936 2C3.11218 2 3.33547 2.09065 3.5001 2.252L8.74577 7.39335C8.9086 7.5539 9 7.77108 9 7.99746C9 8.22384 8.9086 8.44102 8.74577 8.60157L3.5001 13.7429C3.41913 13.8239 3.32257 13.8883 3.21602 13.9324C3.10946 13.9766 2.99504 13.9995 2.87936 14Z" fill="white"/>
</svg>
