<svg width="24" height="24" viewBox="0 0 24 24" fill="none" xmlns="http://www.w3.org/2000/svg">
<g clip-path="url(#clip0_1322_81033)">
<path fill-rule="evenodd" clip-rule="evenodd" d="M10 0.75C15.105 0.75 19.25 4.895 19.25 10C19.25 15.105 15.105 19.25 10 19.25C4.895 19.25 0.75 15.105 0.75 10C0.75 4.895 4.895 0.75 10 0.75ZM10 2.25C5.723 2.25 2.25 5.723 2.25 10C2.25 14.277 5.723 17.75 10 17.75C14.277 17.75 17.75 14.277 17.75 10C17.75 5.723 14.277 2.25 10 2.25Z" fill="#A5A5A5"/>
<path fill-rule="evenodd" clip-rule="evenodd" d="M10 4.75C9.586 4.75 9.25 4.414 9.25 4C9.25 3.586 9.586 3.25 10 3.25C12.346 3.25 14.415 4.45 15.625 6.269C15.854 6.613 15.76 7.079 15.415 7.309C15.071 7.538 14.605 7.444 14.375 7.099C13.434 5.684 11.825 4.75 10 4.75Z" fill="#A5A5A5"/>
<path fill-rule="evenodd" clip-rule="evenodd" d="M15.4698 16.5298C15.1768 16.2378 15.1768 15.7617 15.4698 15.4698C15.7617 15.1768 16.2378 15.1768 16.5298 15.4698L23.0298 21.9697C23.3228 22.2617 23.3228 22.7378 23.0298 23.0298C22.7378 23.3228 22.2617 23.3228 21.9697 23.0298L15.4698 16.5298Z" fill="#A5A5A5"/>
</g>
<defs>
<clipPath id="clip0_1322_81033">
<rect width="24" height="24" fill="white"/>
</clipPath>
</defs>
</svg>
