<svg width="33" height="28" viewBox="0 0 33 28" fill="none" xmlns="http://www.w3.org/2000/svg">
<path d="M13.6541 22.9946C8.93382 22.9946 5.09981 18.9615 5.09981 13.9961C5.09981 9.04017 8.93382 5.00545 13.6541 5.00545C18.3653 5.00545 22.2084 9.04017 22.2084 13.9961C22.2084 14.9952 22.0557 15.9545 21.7653 16.8503C21.2768 18.3983 20.3905 19.7506 19.2426 20.7959C17.7498 22.1657 15.7972 22.9946 13.6541 22.9946ZM31.0713 23.3939L25.6084 19.5501C26.3328 17.8478 26.7306 15.9736 26.7306 13.9961C26.7306 6.41347 20.8609 0.250031 13.6541 0.250031C6.44738 0.250031 0.577637 6.41347 0.577637 13.9961C0.577637 21.5866 6.44738 27.75 13.6541 27.75C17.3611 27.75 20.7172 26.1241 23.0947 23.4974L28.5576 27.3507C28.9463 27.6275 29.3804 27.75 29.8145 27.75C30.5374 27.75 31.2603 27.3793 31.6944 26.6952C32.3916 25.6102 32.1103 24.1258 31.0713 23.3939Z" fill="#C0171D"/>
</svg>
