<svg width="61" height="61" viewBox="0 0 61 61" fill="none" xmlns="http://www.w3.org/2000/svg">
<path d="M31.0208 40.6667C30.5207 40.6658 30.0413 40.4669 29.6875 40.1134C29.3337 39.76 29.1342 39.2808 29.1328 38.7807V21.2194C29.1329 20.8695 29.2304 20.5265 29.4144 20.2289C29.5984 19.9313 29.8616 19.6909 30.1746 19.5344C30.4875 19.378 30.8379 19.3119 31.1863 19.3433C31.5348 19.3748 31.8676 19.5027 32.1475 19.7127L43.8561 28.4934C44.0902 28.6687 44.2801 28.8962 44.411 29.1577C44.5418 29.4192 44.6099 29.7076 44.6099 30C44.6099 30.2925 44.5418 30.5809 44.411 30.8424C44.2801 31.1039 44.0902 31.3314 43.8561 31.5067L32.1488 40.288C31.8239 40.5333 31.4279 40.6662 31.0208 40.6667ZM31.0248 20.6667C30.9372 20.6676 30.8508 20.6881 30.7721 20.7267C30.6797 20.7712 30.602 20.8413 30.5481 20.9286C30.4943 21.0159 30.4665 21.1168 30.4681 21.2194V38.7807C30.4679 38.883 30.4963 38.9834 30.5499 39.0704C30.6036 39.1575 30.6805 39.2279 30.772 39.2737C30.8635 39.3195 30.966 39.3389 31.0679 39.3296C31.1698 39.3204 31.2671 39.2829 31.3488 39.2214L43.0568 30.4407C43.1253 30.3894 43.1808 30.3229 43.2191 30.2464C43.2573 30.1699 43.2773 30.0856 43.2773 30C43.2773 29.9145 43.2573 29.8302 43.2191 29.7537C43.1808 29.6772 43.1253 29.6107 43.0568 29.5594L31.3488 20.7787C31.2561 20.7067 31.1422 20.6674 31.0248 20.6667Z" fill="#8BC34A"/>
<path d="M17.2626 40.6667C17.0158 40.6662 16.7716 40.617 16.5438 40.5219C16.316 40.4268 16.1093 40.2877 15.9354 40.1125C15.7615 39.9374 15.6239 39.7296 15.5304 39.5012C15.4369 39.2728 15.3894 39.0282 15.3906 38.7814V21.2194C15.3888 20.8683 15.4856 20.5238 15.6699 20.225C15.8543 19.9263 16.1188 19.6852 16.4333 19.5294C16.7435 19.3744 17.0909 19.3096 17.4361 19.3422C17.7813 19.3749 18.1104 19.5037 18.386 19.714L29.5813 28.2054C29.8576 28.4159 30.0815 28.6875 30.2356 28.9987C30.3897 29.31 30.4699 29.6527 30.4699 30C30.4699 30.3474 30.3897 30.69 30.2356 31.0013C30.0815 31.3126 29.8576 31.5841 29.5813 31.7947L18.386 40.2854C18.0634 40.532 17.6687 40.666 17.2626 40.6667ZM17.268 20.6667C17.196 20.6672 17.1249 20.6819 17.0586 20.71C16.9924 20.7381 16.9323 20.779 16.8819 20.8303C16.8315 20.8817 16.7917 20.9425 16.7648 21.0092C16.7379 21.076 16.7245 21.1474 16.7253 21.2194V38.7807C16.7239 38.8834 16.7516 38.9844 16.8052 39.072C16.8587 39.1597 16.936 39.2304 17.028 39.276C17.1156 39.3214 17.2144 39.3405 17.3125 39.331C17.4107 39.3215 17.504 39.2839 17.5813 39.2227L28.7753 30.7334C28.888 30.6472 28.9793 30.5362 29.0421 30.409C29.1049 30.2818 29.1376 30.1419 29.1376 30C29.1376 29.8582 29.1049 29.7182 29.0421 29.5911C28.9793 29.4639 28.888 29.3529 28.7753 29.2667L17.58 20.7767C17.4911 20.7064 17.3813 20.6677 17.268 20.6667Z" fill="#8BC34A"/>
<path d="M30.5 0C26.4947 0 22.5286 0.788906 18.8282 2.32167C15.1277 3.85444 11.7654 6.10106 8.93324 8.93324C6.10106 11.7654 3.85444 15.1277 2.32167 18.8282C0.788905 22.5286 -1.75078e-07 26.4947 0 30.5C1.75078e-07 34.5053 0.788906 38.4714 2.32167 42.1718C3.85444 45.8723 6.10106 49.2346 8.93324 52.0668C11.7654 54.8989 15.1277 57.1456 18.8282 58.6783C22.5286 60.2111 26.4947 61 30.5 61L30.5 30.5L30.5 0Z" fill="#8BC34A" fill-opacity="0.09"/>
</svg>
