<svg width="61" height="61" viewBox="0 0 61 61" fill="none" xmlns="http://www.w3.org/2000/svg">
<path d="M19.3331 32.0208C19.3339 31.5207 19.5329 31.0413 19.8863 30.6875C20.2398 30.3337 20.7189 30.1342 21.2191 30.1328L38.7804 30.1328C39.1303 30.1329 39.4732 30.2304 39.7708 30.4144C40.0684 30.5984 40.3089 30.8616 40.4653 31.1746C40.6217 31.4875 40.6879 31.8379 40.6564 32.1863C40.6249 32.5348 40.497 32.8676 40.2871 33.1475L31.5064 44.8561C31.331 45.0902 31.1036 45.2801 30.8421 45.411C30.5806 45.5418 30.2922 45.6099 29.9997 45.6099C29.7073 45.6099 29.4189 45.5418 29.1574 45.411C28.8959 45.2801 28.6684 45.0902 28.4931 44.8561L19.7117 33.1488C19.4664 32.8239 19.3335 32.4279 19.3331 32.0208ZM39.3331 32.0248C39.3322 31.9372 39.3117 31.8508 39.2731 31.7721C39.2285 31.6797 39.1585 31.602 39.0712 31.5481C38.9839 31.4943 38.883 31.4665 38.7804 31.4681L21.2191 31.4681C21.1167 31.4679 21.0164 31.4963 20.9293 31.5499C20.8422 31.6036 20.7718 31.6805 20.726 31.772C20.6802 31.8635 20.6609 31.966 20.6701 32.0679C20.6794 32.1698 20.7169 32.2671 20.7784 32.3488L29.5591 44.0568C29.6103 44.1253 29.6769 44.1808 29.7534 44.2191C29.8299 44.2573 29.9142 44.2773 29.9997 44.2773C30.0853 44.2773 30.1696 44.2573 30.2461 44.2191C30.3226 44.1808 30.3891 44.1253 30.4404 44.0568L39.2211 32.3488C39.293 32.2561 39.3324 32.1422 39.3331 32.0248Z" fill="#8BC34A"/>
<path d="M19.3313 18.2607C19.3319 18.0139 19.3811 17.7696 19.4762 17.5418C19.5713 17.3141 19.7104 17.1073 19.8855 16.9334C20.0607 16.7595 20.2684 16.6219 20.4968 16.5284C20.7253 16.435 20.9699 16.3875 21.2167 16.3887L38.7787 16.3887C39.1297 16.3869 39.4742 16.4837 39.773 16.668C40.0718 16.8523 40.3128 17.1168 40.4687 17.4314C40.6236 17.7415 40.6885 18.0889 40.6558 18.4341C40.6232 18.7793 40.4944 19.1084 40.284 19.384L31.7927 30.5794C31.5821 30.8556 31.3106 31.0795 30.9993 31.2336C30.688 31.3877 30.3454 31.4679 29.998 31.4679C29.6507 31.4679 29.308 31.3877 28.9967 31.2336C28.6854 31.0795 28.4139 30.8556 28.2034 30.5794L19.7127 19.384C19.466 19.0614 19.3321 18.6668 19.3313 18.2607ZM39.3313 18.266C39.3308 18.1941 39.3161 18.1229 39.288 18.0567C39.2599 17.9904 39.2191 17.9304 39.1677 17.8799C39.1164 17.8295 39.0556 17.7897 38.9888 17.7629C38.922 17.736 38.8506 17.7226 38.7787 17.7234L21.2173 17.7234C21.1146 17.722 21.0136 17.7497 20.926 17.8032C20.8384 17.8568 20.7676 17.934 20.722 18.026C20.6767 18.1136 20.6576 18.2124 20.667 18.3106C20.6765 18.4087 20.7141 18.5021 20.7753 18.5794L29.2647 29.7734C29.3509 29.886 29.4619 29.9773 29.589 30.0401C29.7162 30.103 29.8562 30.1357 29.998 30.1357C30.1399 30.1357 30.2798 30.103 30.407 30.0401C30.5342 29.9773 30.6452 29.886 30.7313 29.7734L39.2213 18.578C39.2916 18.4891 39.3303 18.3794 39.3313 18.266Z" fill="#8BC34A"/>
<path d="M30.5 0C26.4947 0 22.5286 0.788906 18.8282 2.32167C15.1277 3.85444 11.7654 6.10106 8.93324 8.93324C6.10106 11.7654 3.85444 15.1277 2.32167 18.8282C0.788905 22.5286 -1.75078e-07 26.4947 0 30.5C1.75078e-07 34.5053 0.788906 38.4714 2.32167 42.1718C3.85444 45.8723 6.10106 49.2346 8.93324 52.0668C11.7654 54.8989 15.1277 57.1456 18.8282 58.6783C22.5286 60.2111 26.4947 61 30.5 61L30.5 30.5L30.5 0Z" fill="#8BC34A" fill-opacity="0.09"/>
</svg>
