<svg width="181" height="79" viewBox="0 0 181 79" fill="none" xmlns="http://www.w3.org/2000/svg">
<g filter="url(#filter0_d_1443_38640)">
<path d="M13.0609 26.1485L16.4424 24.6993C16.6723 24.6008 16.9363 24.6234 17.1462 24.7596L30.539 33.4532C30.9913 33.7468 30.9953 34.4073 30.5467 34.7064L27.5928 36.6756C27.3409 36.8436 27.0127 36.8436 26.7608 36.6756L12.9403 27.4619C12.4447 27.1316 12.5135 26.3832 13.0609 26.1485Z" fill="#8BC34A" stroke="#8BC34A" stroke-width="0.5"/>
<path d="M26.6469 39.7222L12.6193 48.9206C11.9402 49.3659 12.047 50.3922 12.8033 50.6881L16.609 52.1773C16.9159 52.2974 17.2622 52.2586 17.5349 52.0735L30.6655 43.1635C31.2671 42.7553 31.2458 41.8619 30.6254 41.4828L27.7167 39.7052C27.3868 39.5036 26.9702 39.5102 26.6469 39.7222Z" fill="#8BC34A" stroke="#8BC34A" stroke-width="0.5"/>
<path d="M47.0078 11.5757L20.1974 22.7269C19.4507 23.0375 19.3623 24.0597 20.0445 24.4939L23.8209 26.897C24.0961 27.0721 24.4393 27.1021 24.7406 26.9772L41.4402 20.0588C42.0986 19.786 42.8229 20.27 42.8229 20.9827V25.3079C42.8229 26.1066 43.7131 26.5829 44.3776 26.1399L47.9466 23.7606C48.2248 23.5752 48.3919 23.2629 48.3919 22.9286V12.499C48.3919 11.7857 47.6664 11.3017 47.0078 11.5757Z" fill="#8BC34A" stroke="#8BC34A" stroke-width="0.5"/>
<path d="M23.5457 49.7667L20.1768 52.125C19.5318 52.5765 19.6373 53.5617 20.3633 53.8663L47.0053 65.0465C47.6643 65.323 48.3923 64.8391 48.3923 64.1244V53.7137C48.3923 53.3718 48.2176 53.0536 47.9292 52.87L44.0951 50.4302C43.4293 50.0065 42.5582 50.4847 42.5582 51.2738V55.6459C42.5582 56.3586 41.8339 56.8425 41.1755 56.5697L24.5019 49.6621C24.1863 49.5313 23.8257 49.5708 23.5457 49.7667Z" fill="#8BC34A" stroke="#8BC34A" stroke-width="0.5"/>
<path d="M46.8493 34.5315L42.2733 37.4732C41.661 37.8668 41.661 38.7619 42.2733 39.1556L46.8493 42.0972C47.5148 42.5251 48.3901 42.0472 48.3901 41.2561V35.3727C48.3901 34.5815 47.5148 34.1037 46.8493 34.5315Z" fill="#8BC34A" stroke="#8BC34A" stroke-width="0.5"/>
</g>
<path d="M72.9016 41.4247C70.8759 41.4247 69.004 41.0924 67.286 40.4277C65.568 39.7374 64.0808 38.7786 62.8243 37.5514C61.5679 36.3243 60.5807 34.8798 59.8627 33.2179C59.1704 31.5561 58.8242 29.7409 58.8242 27.7723C58.8242 25.8037 59.1704 23.9885 59.8627 22.3267C60.5807 20.6648 61.5679 19.2203 62.8243 17.9932C64.1064 16.766 65.6065 15.82 67.3245 15.1553C69.0425 14.465 70.9143 14.1198 72.94 14.1198C74.8888 14.1198 76.7222 14.4522 78.4402 15.1169C80.1582 15.7561 81.607 16.7276 82.7865 18.0315L80.9788 19.8339C79.8762 18.709 78.6582 17.9037 77.3248 17.4179C75.9914 16.9066 74.5555 16.6509 73.017 16.6509C71.4015 16.6509 69.9015 16.9321 68.5168 17.4946C67.1322 18.0315 65.927 18.8113 64.9013 19.8339C63.8757 20.831 63.0679 22.0071 62.4782 23.3621C61.9141 24.6915 61.632 26.1616 61.632 27.7723C61.632 29.383 61.9141 30.8658 62.4782 32.2208C63.0679 33.5503 63.8757 34.7264 64.9013 35.749C65.927 36.7461 67.1322 37.5259 68.5168 38.0883C69.9015 38.6252 71.4015 38.8937 73.017 38.8937C74.5555 38.8937 75.9914 38.638 77.3248 38.1267C78.6582 37.6154 79.8762 36.7972 80.9788 35.6723L82.7865 37.4747C81.607 38.7786 80.1582 39.7629 78.4402 40.4277C76.7222 41.0924 74.876 41.4247 72.9016 41.4247Z" fill="#373737"/>
<path d="M88.2771 41.1947V21.0611H91.0079V41.1947H88.2771ZM89.6617 16.6126C89.0976 16.6126 88.6232 16.4208 88.2386 16.0373C87.854 15.6538 87.6617 15.1936 87.6617 14.6567C87.6617 14.1198 87.854 13.6724 88.2386 13.3145C88.6232 12.931 89.0976 12.7393 89.6617 12.7393C90.2258 12.7393 90.7002 12.9182 91.0849 13.2762C91.4695 13.6341 91.6618 14.0815 91.6618 14.6184C91.6618 15.1808 91.4695 15.6538 91.0849 16.0373C90.7259 16.4208 90.2515 16.6126 89.6617 16.6126Z" fill="#373737"/>
<path d="M107.222 48.8262C105.376 48.8262 103.607 48.5578 101.914 48.0209C100.222 47.484 98.85 46.717 97.7987 45.7199L99.1834 43.649C100.132 44.4927 101.299 45.1574 102.683 45.6432C104.094 46.1545 105.581 46.4102 107.145 46.4102C109.709 46.4102 111.594 45.8094 112.799 44.6078C114.004 43.4317 114.607 41.5909 114.607 39.0854V34.0616L114.992 30.6102L114.722 27.1587V21.0611H117.338V38.7403C117.338 42.2173 116.479 44.7612 114.761 46.3718C113.068 48.0081 110.556 48.8262 107.222 48.8262ZM106.722 40.4277C104.799 40.4277 103.068 40.0186 101.53 39.2005C99.9911 38.3568 98.7731 37.1935 97.8756 35.7107C97.0038 34.2278 96.5679 32.5276 96.5679 30.6102C96.5679 28.6927 97.0038 27.0053 97.8756 25.548C98.7731 24.0652 99.9911 22.9147 101.53 22.0966C103.068 21.2784 104.799 20.8694 106.722 20.8694C108.517 20.8694 110.132 21.2401 111.568 21.9815C113.004 22.7229 114.145 23.8223 114.992 25.2796C115.838 26.7369 116.261 28.5137 116.261 30.6102C116.261 32.7066 115.838 34.4835 114.992 35.9408C114.145 37.398 113.004 38.5102 111.568 39.2772C110.132 40.0442 108.517 40.4277 106.722 40.4277ZM106.991 38.0116C108.479 38.0116 109.799 37.7048 110.953 37.0912C112.107 36.4521 113.017 35.5828 113.684 34.4835C114.351 33.3586 114.684 32.0674 114.684 30.6102C114.684 29.1529 114.351 27.8746 113.684 26.7752C113.017 25.6759 112.107 24.8194 110.953 24.2058C109.799 23.5666 108.479 23.247 106.991 23.247C105.53 23.247 104.209 23.5666 103.03 24.2058C101.876 24.8194 100.965 25.6759 100.299 26.7752C99.6577 27.8746 99.3372 29.1529 99.3372 30.6102C99.3372 32.0674 99.6577 33.3586 100.299 34.4835C100.965 35.5828 101.876 36.4521 103.03 37.0912C104.209 37.7048 105.53 38.0116 106.991 38.0116Z" fill="#373737"/>
<path d="M150.168 20.8694C151.81 20.8694 153.233 21.189 154.438 21.8281C155.669 22.4417 156.617 23.3877 157.284 24.666C157.976 25.9443 158.323 27.555 158.323 29.498V41.1947H155.592V29.7665C155.592 27.6445 155.079 26.0466 154.053 24.9728C153.053 23.8734 151.63 23.3237 149.784 23.3237C148.399 23.3237 147.194 23.6178 146.168 24.2058C145.168 24.7682 144.386 25.5992 143.822 26.6985C143.284 27.7723 143.014 29.0762 143.014 30.6102V41.1947H140.284V29.7665C140.284 27.6445 139.771 26.0466 138.745 24.9728C137.719 23.8734 136.283 23.3237 134.437 23.3237C133.078 23.3237 131.886 23.6178 130.86 24.2058C129.834 24.7682 129.04 25.5992 128.475 26.6985C127.937 27.7723 127.668 29.0762 127.668 30.6102V41.1947H124.937V21.0611H127.552V26.5068L127.129 25.548C127.745 24.0907 128.732 22.953 130.091 22.1349C131.476 21.2912 133.104 20.8694 134.976 20.8694C136.95 20.8694 138.63 21.3679 140.014 22.365C141.399 23.3365 142.296 24.8066 142.707 26.7752L141.63 26.3534C142.219 24.7171 143.258 23.4004 144.745 22.4034C146.258 21.3807 148.066 20.8694 150.168 20.8694Z" fill="#373737"/>
<path d="M178.383 41.1947V36.7461L178.267 36.0175V28.5776C178.267 26.8647 177.78 25.548 176.806 24.6276C175.857 23.7072 174.434 23.247 172.536 23.247C171.229 23.247 169.985 23.4644 168.805 23.899C167.626 24.3336 166.626 24.9089 165.805 25.6247L164.575 23.5922C165.6 22.7229 166.831 22.0582 168.267 21.598C169.703 21.1123 171.216 20.8694 172.806 20.8694C175.421 20.8694 177.434 21.5213 178.844 22.8252C180.28 24.1035 180.998 26.0593 180.998 28.6927V41.1947H178.383ZM171.421 41.3864C169.908 41.3864 168.587 41.1435 167.459 40.6578C166.357 40.1464 165.51 39.4561 164.921 38.5869C164.331 37.6921 164.036 36.6694 164.036 35.5189C164.036 34.4707 164.28 33.5247 164.767 32.681C165.28 31.8118 166.1 31.1215 167.228 30.6102C168.382 30.0733 169.921 29.8048 171.844 29.8048H178.806V31.8374H171.921C169.972 31.8374 168.613 32.1825 167.844 32.8728C167.1 33.5631 166.728 34.4196 166.728 35.4422C166.728 36.5927 167.177 37.5131 168.075 38.2034C168.972 38.8937 170.229 39.2388 171.844 39.2388C173.383 39.2388 174.703 38.8937 175.806 38.2034C176.934 37.4875 177.754 36.4649 178.267 35.1354L178.883 37.0145C178.37 38.344 177.472 39.405 176.19 40.1976C174.934 40.9901 173.344 41.3864 171.421 41.3864Z" fill="#373737"/>
<path d="M62.386 61.3886C61.8726 61.3886 61.3977 61.3054 60.9613 61.139C60.5313 60.9662 60.1559 60.7262 59.835 60.4189C59.5205 60.1053 59.2735 59.7405 59.0938 59.3244C58.9141 58.9084 58.8242 58.4507 58.8242 57.9515C58.8242 57.4523 58.9141 56.9946 59.0938 56.5786C59.2735 56.1625 59.5237 55.8009 59.8446 55.4937C60.1655 55.18 60.5409 54.94 60.9709 54.7736C61.4073 54.6008 61.8822 54.5144 62.3956 54.5144C62.9155 54.5144 63.3936 54.604 63.83 54.7832C64.2728 54.956 64.6482 55.2153 64.9563 55.5609L64.3306 56.1657C64.0739 55.8969 63.7851 55.6985 63.4642 55.5705C63.1433 55.4361 62.8 55.3689 62.4341 55.3689C62.0555 55.3689 61.7025 55.4329 61.3752 55.5609C61.0544 55.6889 60.7752 55.8681 60.5377 56.0985C60.3003 56.329 60.1142 56.6042 59.9794 56.9242C59.851 57.2378 59.7869 57.5803 59.7869 57.9515C59.7869 58.3227 59.851 58.6684 59.9794 58.9884C60.1142 59.302 60.3003 59.5741 60.5377 59.8045C60.7752 60.0349 61.0544 60.2141 61.3752 60.3421C61.7025 60.4701 62.0555 60.5341 62.4341 60.5341C62.8 60.5341 63.1433 60.4701 63.4642 60.3421C63.7851 60.2077 64.0739 60.0029 64.3306 59.7277L64.9563 60.3325C64.6482 60.6782 64.2728 60.9406 63.83 61.1198C63.3936 61.299 62.9123 61.3886 62.386 61.3886Z" fill="#373737"/>
<path d="M68.26 61.3694C67.7466 61.3694 67.291 61.2574 66.8931 61.0334C66.4952 60.8094 66.1807 60.5021 65.9497 60.1117C65.7187 59.7149 65.6031 59.2668 65.6031 58.7676C65.6031 58.2619 65.7187 57.8139 65.9497 57.4235C66.1807 57.033 66.4952 56.729 66.8931 56.5114C67.291 56.2874 67.7466 56.1753 68.26 56.1753C68.767 56.1753 69.2195 56.2874 69.6174 56.5114C70.0217 56.729 70.3362 57.033 70.5608 57.4235C70.7918 57.8075 70.9073 58.2555 70.9073 58.7676C70.9073 59.2732 70.7918 59.7213 70.5608 60.1117C70.3362 60.5021 70.0217 60.8094 69.6174 61.0334C69.2195 61.2574 68.767 61.3694 68.26 61.3694ZM68.26 60.5629C68.5873 60.5629 68.8793 60.4893 69.1361 60.3421C69.3992 60.1949 69.6045 59.9869 69.7521 59.7181C69.8998 59.4428 69.9736 59.126 69.9736 58.7676C69.9736 58.4027 69.8998 58.0891 69.7521 57.8267C69.6045 57.5579 69.3992 57.3498 69.1361 57.2026C68.8793 57.0554 68.5873 56.9818 68.26 56.9818C67.9327 56.9818 67.6407 57.0554 67.384 57.2026C67.1273 57.3498 66.922 57.5579 66.7679 57.8267C66.6139 58.0891 66.5369 58.4027 66.5369 58.7676C66.5369 59.126 66.6139 59.4428 66.7679 59.7181C66.922 59.9869 67.1273 60.1949 67.384 60.3421C67.6407 60.4893 67.9327 60.5629 68.26 60.5629Z" fill="#373737"/>
<path d="M75.0059 56.1753C75.4231 56.1753 75.7889 56.2553 76.1034 56.4154C76.4242 56.5754 76.6745 56.8186 76.8542 57.145C77.0339 57.4715 77.1238 57.8843 77.1238 58.3835V61.3118H76.1996V58.4892C76.1996 57.9963 76.0777 57.6251 75.8338 57.3754C75.5964 57.1258 75.2594 57.001 74.823 57.001C74.4957 57.001 74.2102 57.065 73.9663 57.193C73.7224 57.321 73.5331 57.5099 73.3983 57.7595C73.27 58.0091 73.2058 58.3195 73.2058 58.6908V61.3118H72.2816V56.2233H73.1673V57.5963L73.0229 57.2314C73.1897 56.8986 73.4465 56.6394 73.793 56.4538C74.1396 56.2681 74.5439 56.1753 75.0059 56.1753Z" fill="#373737"/>
<path d="M81.6546 56.1753C82.0717 56.1753 82.4376 56.2553 82.752 56.4154C83.0729 56.5754 83.3232 56.8186 83.5029 57.145C83.6826 57.4715 83.7724 57.8843 83.7724 58.3835V61.3118H82.8483V58.4892C82.8483 57.9963 82.7263 57.6251 82.4825 57.3754C82.245 57.1258 81.9081 57.001 81.4717 57.001C81.1444 57.001 80.8588 57.065 80.6149 57.193C80.3711 57.321 80.1817 57.5099 80.047 57.7595C79.9186 58.0091 79.8544 58.3195 79.8544 58.6908V61.3118H78.9303V56.2233H79.8159V57.5963L79.6715 57.2314C79.8384 56.8986 80.0951 56.6394 80.4417 56.4538C80.7882 56.2681 81.1925 56.1753 81.6546 56.1753Z" fill="#373737"/>
<path d="M87.8508 61.3694C87.3053 61.3694 86.824 61.2574 86.4068 61.0334C85.9961 60.8094 85.6752 60.5021 85.4442 60.1117C85.2196 59.7213 85.1073 59.2732 85.1073 58.7676C85.1073 58.2619 85.2164 57.8139 85.4346 57.4235C85.6592 57.033 85.964 56.729 86.3491 56.5114C86.7406 56.2874 87.1802 56.1753 87.6679 56.1753C88.1621 56.1753 88.5985 56.2842 88.9771 56.5018C89.3558 56.7194 89.651 57.0266 89.8627 57.4235C90.0809 57.8139 90.19 58.2715 90.19 58.7964C90.19 58.8348 90.1868 58.8796 90.1804 58.9308C90.1804 58.982 90.1772 59.03 90.1708 59.0748H85.8293V58.4123H89.6895L89.314 58.6428C89.3205 58.3163 89.2531 58.0251 89.1119 57.7691C88.9707 57.5131 88.775 57.3146 88.5247 57.1738C88.2808 57.0266 87.9952 56.953 87.6679 56.953C87.347 56.953 87.0614 57.0266 86.8112 57.1738C86.5609 57.3146 86.3651 57.5163 86.2239 57.7787C86.0828 58.0347 86.0122 58.3291 86.0122 58.662V58.8156C86.0122 59.1548 86.0892 59.4588 86.2432 59.7277C86.4036 59.9901 86.625 60.1949 86.9074 60.3421C87.1898 60.4893 87.5139 60.5629 87.8797 60.5629C88.1813 60.5629 88.4541 60.5117 88.6979 60.4093C88.9482 60.3069 89.1664 60.1533 89.3525 59.9485L89.8627 60.5437C89.6317 60.8126 89.3429 61.0174 88.9964 61.1582C88.6562 61.299 88.2744 61.3694 87.8508 61.3694Z" fill="#373737"/>
<path d="M93.7933 61.3694C93.2734 61.3694 92.8082 61.2574 92.3974 61.0334C91.9931 60.8094 91.6755 60.5021 91.4444 60.1117C91.2134 59.7213 91.0979 59.2732 91.0979 58.7676C91.0979 58.2619 91.2134 57.8139 91.4444 57.4235C91.6755 57.033 91.9931 56.729 92.3974 56.5114C92.8082 56.2874 93.2734 56.1753 93.7933 56.1753C94.2553 56.1753 94.6661 56.2681 95.0255 56.4538C95.3913 56.633 95.6736 56.9018 95.8726 57.2602L95.1699 57.7115C95.003 57.4619 94.7976 57.2794 94.5538 57.1642C94.3163 57.0426 94.0596 56.9818 93.7837 56.9818C93.4499 56.9818 93.1515 57.0554 92.8884 57.2026C92.6253 57.3498 92.4167 57.5579 92.2627 57.8267C92.1086 58.0891 92.0316 58.4027 92.0316 58.7676C92.0316 59.1324 92.1086 59.4492 92.2627 59.7181C92.4167 59.9869 92.6253 60.1949 92.8884 60.3421C93.1515 60.4893 93.4499 60.5629 93.7837 60.5629C94.0596 60.5629 94.3163 60.5053 94.5538 60.3901C94.7976 60.2685 95.003 60.0829 95.1699 59.8333L95.8726 60.2749C95.6736 60.6269 95.3913 60.899 95.0255 61.091C94.6661 61.2766 94.2553 61.3694 93.7933 61.3694Z" fill="#373737"/>
<path d="M98.9832 61.3694C98.4697 61.3694 98.0718 61.2318 97.7895 60.9566C97.5071 60.6814 97.3659 60.2877 97.3659 59.7757V55.1096H98.29V59.7373C98.29 60.0125 98.3574 60.2237 98.4922 60.3709C98.6334 60.5181 98.8323 60.5917 99.089 60.5917C99.3778 60.5917 99.6185 60.5117 99.811 60.3517L100.1 61.0142C99.9586 61.1358 99.7886 61.2254 99.5896 61.283C99.3971 61.3406 99.1949 61.3694 98.9832 61.3694ZM96.4995 56.9818V56.2233H99.7533V56.9818H96.4995Z" fill="#373737"/>
<path d="M101.042 62.7327L101.523 60.7934L101.648 61.3502C101.462 61.3502 101.305 61.2926 101.176 61.1774C101.054 61.0622 100.993 60.9054 100.993 60.707C100.993 60.5149 101.054 60.3581 101.176 60.2365C101.305 60.1149 101.459 60.0541 101.638 60.0541C101.825 60.0541 101.975 60.1181 102.091 60.2461C102.206 60.3677 102.264 60.5213 102.264 60.707C102.264 60.771 102.258 60.835 102.245 60.899C102.238 60.9566 102.222 61.027 102.197 61.1102C102.177 61.187 102.145 61.283 102.1 61.3982L101.648 62.7327H101.042Z" fill="#373737"/>
<path d="M108.465 61.3886C107.951 61.3886 107.46 61.3118 106.992 61.1582C106.523 60.9982 106.154 60.7934 105.885 60.5437L106.241 59.7949C106.498 60.0189 106.825 60.2045 107.223 60.3517C107.621 60.4989 108.035 60.5725 108.465 60.5725C108.856 60.5725 109.174 60.5277 109.418 60.4381C109.662 60.3485 109.841 60.2269 109.957 60.0733C110.072 59.9133 110.13 59.7341 110.13 59.5356C110.13 59.3052 110.053 59.1196 109.899 58.9788C109.751 58.838 109.556 58.726 109.312 58.6428C109.074 58.5532 108.811 58.4764 108.522 58.4123C108.234 58.3483 107.942 58.2747 107.646 58.1915C107.358 58.1019 107.091 57.9899 106.847 57.8555C106.61 57.7211 106.417 57.5419 106.27 57.3178C106.122 57.0874 106.048 56.793 106.048 56.4346C106.048 56.0889 106.138 55.7721 106.318 55.4841C106.504 55.1896 106.786 54.956 107.165 54.7832C107.55 54.604 108.038 54.5144 108.628 54.5144C109.02 54.5144 109.408 54.5656 109.793 54.668C110.178 54.7704 110.512 54.9176 110.794 55.1096L110.477 55.8777C110.188 55.6857 109.883 55.5481 109.562 55.4649C109.241 55.3753 108.93 55.3305 108.628 55.3305C108.25 55.3305 107.938 55.3785 107.695 55.4745C107.451 55.5705 107.271 55.6985 107.155 55.8585C107.046 56.0185 106.992 56.1977 106.992 56.3962C106.992 56.633 107.066 56.8218 107.213 56.9626C107.367 57.1034 107.563 57.2154 107.8 57.2986C108.044 57.3819 108.311 57.4587 108.599 57.5291C108.888 57.5931 109.177 57.6667 109.466 57.7499C109.761 57.8331 110.027 57.9419 110.265 58.0763C110.509 58.2107 110.704 58.3899 110.852 58.614C111 58.838 111.073 59.126 111.073 59.478C111.073 59.8173 110.98 60.1341 110.794 60.4285C110.608 60.7166 110.319 60.9502 109.928 61.1294C109.543 61.3022 109.055 61.3886 108.465 61.3886Z" fill="#373737"/>
<path d="M114.588 61.3694C114.152 61.3694 113.767 61.2894 113.433 61.1294C113.106 60.9694 112.849 60.7262 112.663 60.3997C112.483 60.0669 112.393 59.6509 112.393 59.1516V56.2233H113.317V59.046C113.317 59.5452 113.436 59.9197 113.674 60.1693C113.917 60.4189 114.258 60.5437 114.694 60.5437C115.015 60.5437 115.294 60.4797 115.531 60.3517C115.769 60.2173 115.952 60.0253 116.08 59.7757C116.208 59.5196 116.273 59.2124 116.273 58.854V56.2233H117.197V61.3118H116.321V59.9389L116.465 60.3037C116.298 60.6429 116.048 60.9054 115.714 61.091C115.381 61.2766 115.005 61.3694 114.588 61.3694Z" fill="#373737"/>
<path d="M121.757 61.3694C121.334 61.3694 120.946 61.2734 120.593 61.0814C120.246 60.883 119.967 60.5917 119.755 60.2077C119.55 59.8237 119.447 59.3436 119.447 58.7676C119.447 58.1915 119.547 57.7115 119.745 57.3274C119.951 56.9434 120.227 56.6554 120.573 56.4634C120.926 56.2713 121.321 56.1753 121.757 56.1753C122.258 56.1753 122.701 56.2842 123.086 56.5018C123.471 56.7194 123.776 57.0234 124 57.4139C124.225 57.7979 124.337 58.2491 124.337 58.7676C124.337 59.286 124.225 59.7405 124 60.1309C123.776 60.5213 123.471 60.8254 123.086 61.043C122.701 61.2606 122.258 61.3694 121.757 61.3694ZM119.052 63.1744V56.2233H119.938V57.5963L119.88 58.7772L119.977 59.9581V63.1744H119.052ZM121.68 60.5629C122.008 60.5629 122.3 60.4893 122.556 60.3421C122.82 60.1949 123.025 59.9869 123.173 59.7181C123.327 59.4428 123.404 59.126 123.404 58.7676C123.404 58.4027 123.327 58.0891 123.173 57.8267C123.025 57.5579 122.82 57.3498 122.556 57.2026C122.3 57.0554 122.008 56.9818 121.68 56.9818C121.36 56.9818 121.068 57.0554 120.804 57.2026C120.548 57.3498 120.342 57.5579 120.188 57.8267C120.041 58.0891 119.967 58.4027 119.967 58.7676C119.967 59.126 120.041 59.4428 120.188 59.7181C120.342 59.9869 120.548 60.1949 120.804 60.3421C121.068 60.4893 121.36 60.5629 121.68 60.5629Z" fill="#373737"/>
<path d="M128.415 61.3694C127.992 61.3694 127.604 61.2734 127.251 61.0814C126.904 60.883 126.625 60.5917 126.413 60.2077C126.208 59.8237 126.105 59.3436 126.105 58.7676C126.105 58.1915 126.205 57.7115 126.404 57.3274C126.609 56.9434 126.885 56.6554 127.231 56.4634C127.584 56.2713 127.979 56.1753 128.415 56.1753C128.916 56.1753 129.359 56.2842 129.744 56.5018C130.129 56.7194 130.434 57.0234 130.658 57.4139C130.883 57.7979 130.995 58.2491 130.995 58.7676C130.995 59.286 130.883 59.7405 130.658 60.1309C130.434 60.5213 130.129 60.8254 129.744 61.043C129.359 61.2606 128.916 61.3694 128.415 61.3694ZM125.71 63.1744V56.2233H126.596V57.5963L126.538 58.7772L126.635 59.9581V63.1744H125.71ZM128.338 60.5629C128.666 60.5629 128.958 60.4893 129.214 60.3421C129.478 60.1949 129.683 59.9869 129.831 59.7181C129.985 59.4428 130.062 59.126 130.062 58.7676C130.062 58.4027 129.985 58.0891 129.831 57.8267C129.683 57.5579 129.478 57.3498 129.214 57.2026C128.958 57.0554 128.666 56.9818 128.338 56.9818C128.018 56.9818 127.726 57.0554 127.462 57.2026C127.206 57.3498 127 57.5579 126.846 57.8267C126.699 58.0891 126.625 58.4027 126.625 58.7676C126.625 59.126 126.699 59.4428 126.846 59.7181C127 59.9869 127.206 60.1949 127.462 60.3421C127.726 60.4893 128.018 60.5629 128.338 60.5629Z" fill="#373737"/>
<path d="M134.554 61.3694C134.04 61.3694 133.585 61.2574 133.187 61.0334C132.789 60.8094 132.474 60.5021 132.243 60.1117C132.012 59.7149 131.897 59.2668 131.897 58.7676C131.897 58.2619 132.012 57.8139 132.243 57.4235C132.474 57.033 132.789 56.729 133.187 56.5114C133.585 56.2874 134.04 56.1753 134.554 56.1753C135.061 56.1753 135.513 56.2874 135.911 56.5114C136.315 56.729 136.63 57.033 136.854 57.4235C137.085 57.8075 137.201 58.2555 137.201 58.7676C137.201 59.2732 137.085 59.7213 136.854 60.1117C136.63 60.5021 136.315 60.8094 135.911 61.0334C135.513 61.2574 135.061 61.3694 134.554 61.3694ZM134.554 60.5629C134.881 60.5629 135.173 60.4893 135.43 60.3421C135.693 60.1949 135.898 59.9869 136.046 59.7181C136.193 59.4428 136.267 59.126 136.267 58.7676C136.267 58.4027 136.193 58.0891 136.046 57.8267C135.898 57.5579 135.693 57.3498 135.43 57.2026C135.173 57.0554 134.881 56.9818 134.554 56.9818C134.226 56.9818 133.934 57.0554 133.678 57.2026C133.421 57.3498 133.216 57.5579 133.062 57.8267C132.908 58.0891 132.831 58.4027 132.831 58.7676C132.831 59.126 132.908 59.4428 133.062 59.7181C133.216 59.9869 133.421 60.1949 133.678 60.3421C133.934 60.4893 134.226 60.5629 134.554 60.5629Z" fill="#373737"/>
<path d="M138.575 61.3118V56.2233H139.461V57.6059L139.374 57.2602C139.516 56.9082 139.753 56.6394 140.087 56.4538C140.42 56.2681 140.831 56.1753 141.319 56.1753V57.0682C141.28 57.0618 141.242 57.0586 141.203 57.0586C141.171 57.0586 141.139 57.0586 141.107 57.0586C140.613 57.0586 140.221 57.2058 139.933 57.5003C139.644 57.7947 139.499 58.2203 139.499 58.7772V61.3118H138.575Z" fill="#373737"/>
<path d="M144.513 61.3694C144 61.3694 143.602 61.2318 143.319 60.9566C143.037 60.6814 142.896 60.2877 142.896 59.7757V55.1096H143.82V59.7373C143.82 60.0125 143.887 60.2237 144.022 60.3709C144.163 60.5181 144.362 60.5917 144.619 60.5917C144.908 60.5917 145.148 60.5117 145.341 60.3517L145.63 61.0142C145.488 61.1358 145.318 61.2254 145.119 61.283C144.927 61.3406 144.725 61.3694 144.513 61.3694ZM142.029 56.9818V56.2233H145.283V56.9818H142.029Z" fill="#373737"/>
<path d="M146.571 62.7327L147.053 60.7934L147.178 61.3502C146.992 61.3502 146.835 61.2926 146.706 61.1774C146.584 61.0622 146.523 60.9054 146.523 60.707C146.523 60.5149 146.584 60.3581 146.706 60.2365C146.835 60.1149 146.989 60.0541 147.168 60.0541C147.354 60.0541 147.505 60.1181 147.621 60.2461C147.736 60.3677 147.794 60.5213 147.794 60.707C147.794 60.771 147.788 60.835 147.775 60.899C147.768 60.9566 147.752 61.027 147.727 61.1102C147.707 61.187 147.675 61.283 147.63 61.3982L147.178 62.7327H146.571Z" fill="#373737"/>
<path d="M153.369 61.3118V55.4265H151.058V54.5912H156.632V55.4265H154.322V61.3118H153.369Z" fill="#373737"/>
<path d="M160.366 56.1753C160.784 56.1753 161.149 56.2553 161.464 56.4154C161.785 56.5754 162.035 56.8186 162.215 57.145C162.394 57.4715 162.484 57.8843 162.484 58.3835V61.3118H161.56V58.4892C161.56 57.9963 161.438 57.6251 161.194 57.3754C160.957 57.1258 160.62 57.001 160.184 57.001C159.856 57.001 159.571 57.065 159.327 57.193C159.083 57.321 158.894 57.5099 158.759 57.7595C158.63 58.0091 158.566 58.3195 158.566 58.6908V61.3118H157.642V54.188H158.566V57.5963L158.383 57.2314C158.55 56.8986 158.807 56.6394 159.153 56.4538C159.5 56.2681 159.904 56.1753 160.366 56.1753Z" fill="#373737"/>
<path d="M164.291 61.3118V56.2233H165.176V57.6059L165.09 57.2602C165.231 56.9082 165.468 56.6394 165.802 56.4538C166.136 56.2681 166.547 56.1753 167.034 56.1753V57.0682C166.996 57.0618 166.957 57.0586 166.919 57.0586C166.887 57.0586 166.855 57.0586 166.823 57.0586C166.328 57.0586 165.937 57.2058 165.648 57.5003C165.359 57.7947 165.215 58.2203 165.215 58.7772V61.3118H164.291Z" fill="#373737"/>
<path d="M168.27 61.3118V56.2233H169.194V61.3118H168.27ZM168.732 55.2441C168.552 55.2441 168.401 55.1864 168.279 55.0712C168.164 54.956 168.106 54.8152 168.106 54.6488C168.106 54.476 168.164 54.332 168.279 54.2168C168.401 54.1016 168.552 54.0439 168.732 54.0439C168.911 54.0439 169.059 54.1016 169.174 54.2168C169.296 54.3256 169.357 54.4632 169.357 54.6296C169.357 54.8024 169.3 54.9496 169.184 55.0712C169.069 55.1864 168.918 55.2441 168.732 55.2441Z" fill="#373737"/>
<path d="M172.393 61.3118L170.159 56.2233H171.122L173.105 60.8318H172.643L174.664 56.2233H175.569L173.336 61.3118H172.393Z" fill="#373737"/>
<path d="M178.659 61.3694C178.113 61.3694 177.632 61.2574 177.215 61.0334C176.804 60.8094 176.483 60.5021 176.252 60.1117C176.028 59.7213 175.915 59.2732 175.915 58.7676C175.915 58.2619 176.024 57.8139 176.243 57.4235C176.467 57.033 176.772 56.729 177.157 56.5114C177.549 56.2874 177.988 56.1753 178.476 56.1753C178.97 56.1753 179.407 56.2842 179.785 56.5018C180.164 56.7194 180.459 57.0266 180.671 57.4235C180.889 57.8139 180.998 58.2715 180.998 58.7964C180.998 58.8348 180.995 58.8796 180.989 58.9308C180.989 58.982 180.985 59.03 180.979 59.0748H176.637V58.4123H180.498L180.122 58.6428C180.129 58.3163 180.061 58.0251 179.92 57.7691C179.779 57.5131 179.583 57.3146 179.333 57.1738C179.089 57.0266 178.803 56.953 178.476 56.953C178.155 56.953 177.87 57.0266 177.619 57.1738C177.369 57.3146 177.173 57.5163 177.032 57.7787C176.891 58.0347 176.82 58.3291 176.82 58.662V58.8156C176.82 59.1548 176.897 59.4588 177.051 59.7277C177.212 59.9901 177.433 60.1949 177.715 60.3421C177.998 60.4893 178.322 60.5629 178.688 60.5629C178.989 60.5629 179.262 60.5117 179.506 60.4093C179.756 60.3069 179.975 60.1533 180.161 59.9485L180.671 60.5437C180.44 60.8126 180.151 61.0174 179.804 61.1582C179.464 61.299 179.082 61.3694 178.659 61.3694Z" fill="#373737"/>
<defs>
<filter id="filter0_d_1443_38640" x="0.917969" y="0.247559" width="60.7227" height="78.1279" filterUnits="userSpaceOnUse" color-interpolation-filters="sRGB">
<feFlood flood-opacity="0" result="BackgroundImageFix"/>
<feColorMatrix in="SourceAlpha" type="matrix" values="0 0 0 0 0 0 0 0 0 0 0 0 0 0 0 0 0 0 127 0" result="hardAlpha"/>
<feOffset dx="1" dy="1"/>
<feGaussianBlur stdDeviation="6"/>
<feComposite in2="hardAlpha" operator="out"/>
<feColorMatrix type="matrix" values="0 0 0 0 0 0 0 0 0 0 0 0 0 0 0 0 0 0 0.12 0"/>
<feBlend mode="normal" in2="BackgroundImageFix" result="effect1_dropShadow_1443_38640"/>
<feBlend mode="normal" in="SourceGraphic" in2="effect1_dropShadow_1443_38640" result="shape"/>
</filter>
</defs>
</svg>
